<mxfile host="Electron" modified="2023-12-24T15:54:15.199Z" agent="Mozilla/5.0 (Windows NT 10.0; Win64; x64) AppleWebKit/537.36 (KHTML, like Gecko) draw.io/22.1.11 Chrome/114.0.5735.289 Electron/25.9.8 Safari/537.36" etag="fYnxYGkHeWT5NNyuJvCl" version="22.1.11" type="device" pages="8">
  <diagram name="selection sort flowchart" id="GPRWNofgy8FLtJxIam--">
    <mxGraphModel dx="2247" dy="992" grid="1" gridSize="10" guides="1" tooltips="1" connect="1" arrows="1" fold="1" page="1" pageScale="1" pageWidth="827" pageHeight="1169" math="0" shadow="0">
      <root>
        <mxCell id="FcQ-IKqGeZoEcgifagWt-0" />
        <mxCell id="FcQ-IKqGeZoEcgifagWt-1" parent="FcQ-IKqGeZoEcgifagWt-0" />
        <mxCell id="FcQ-IKqGeZoEcgifagWt-2" value="Bắt đầu" style="strokeWidth=2;html=1;shape=mxgraph.flowchart.terminator;whiteSpace=wrap;fontSize=20;fontFamily=consolas;strokeColor=#00FF80;fontColor=#00FF80;fillColor=none;" parent="FcQ-IKqGeZoEcgifagWt-1" vertex="1">
          <mxGeometry x="280" y="250" width="120" height="60" as="geometry" />
        </mxCell>
        <mxCell id="FcQ-IKqGeZoEcgifagWt-3" value="Input: A, n" style="shape=parallelogram;html=1;strokeWidth=2;perimeter=parallelogramPerimeter;whiteSpace=wrap;rounded=1;arcSize=12;size=0.23;fontSize=20;fontFamily=consolas;strokeColor=#0099CC;fillColor=none;gradientColor=#ffd966;fontColor=#0099CC;" parent="FcQ-IKqGeZoEcgifagWt-1" vertex="1">
          <mxGeometry x="240" y="350" width="200" height="60" as="geometry" />
        </mxCell>
        <mxCell id="FcQ-IKqGeZoEcgifagWt-4" value="i = 0" style="rounded=1;whiteSpace=wrap;html=1;absoluteArcSize=1;arcSize=14;strokeWidth=2;fontFamily=consolas;fontSize=20;strokeColor=#FF8433;fontColor=#FF8433;fillColor=none;" parent="FcQ-IKqGeZoEcgifagWt-1" vertex="1">
          <mxGeometry x="260" y="452.5" width="160" height="60" as="geometry" />
        </mxCell>
        <mxCell id="FcQ-IKqGeZoEcgifagWt-5" value="" style="endArrow=classic;html=1;fontFamily=consolas;fontSize=20;strokeWidth=3;fillColor=#a20025;strokeColor=#00FF80;exitX=0.5;exitY=1;exitDx=0;exitDy=0;exitPerimeter=0;entryX=0.5;entryY=0;entryDx=0;entryDy=0;" parent="FcQ-IKqGeZoEcgifagWt-1" source="FcQ-IKqGeZoEcgifagWt-2" target="FcQ-IKqGeZoEcgifagWt-3" edge="1">
          <mxGeometry width="50" height="50" relative="1" as="geometry">
            <mxPoint x="560" y="590" as="sourcePoint" />
            <mxPoint x="330" y="290" as="targetPoint" />
          </mxGeometry>
        </mxCell>
        <mxCell id="FcQ-IKqGeZoEcgifagWt-6" value="" style="endArrow=classic;html=1;fontFamily=consolas;fontSize=20;strokeWidth=3;fillColor=#a20025;strokeColor=#0099CC;exitX=0.5;exitY=1;exitDx=0;exitDy=0;entryX=0.5;entryY=0;entryDx=0;entryDy=0;fontColor=default;" parent="FcQ-IKqGeZoEcgifagWt-1" source="FcQ-IKqGeZoEcgifagWt-3" target="FcQ-IKqGeZoEcgifagWt-4" edge="1">
          <mxGeometry width="50" height="50" relative="1" as="geometry">
            <mxPoint x="550" y="400" as="sourcePoint" />
            <mxPoint x="550" y="460" as="targetPoint" />
          </mxGeometry>
        </mxCell>
        <mxCell id="FcQ-IKqGeZoEcgifagWt-9" value="i &amp;lt; n" style="strokeWidth=2;html=1;shape=mxgraph.flowchart.decision;whiteSpace=wrap;fontFamily=consolas;fontSize=20;strokeColor=#FF8433;fontColor=#FF8433;fillColor=none;" parent="FcQ-IKqGeZoEcgifagWt-1" vertex="1">
          <mxGeometry x="260" y="557" width="160" height="63" as="geometry" />
        </mxCell>
        <mxCell id="FcQ-IKqGeZoEcgifagWt-10" value="" style="endArrow=classic;html=1;fontFamily=consolas;fontSize=20;strokeWidth=3;fillColor=#a20025;strokeColor=#FF8433;exitX=0.5;exitY=1;exitDx=0;exitDy=0;entryX=0.5;entryY=0;entryDx=0;entryDy=0;entryPerimeter=0;" parent="FcQ-IKqGeZoEcgifagWt-1" source="FcQ-IKqGeZoEcgifagWt-4" target="FcQ-IKqGeZoEcgifagWt-9" edge="1">
          <mxGeometry width="50" height="50" relative="1" as="geometry">
            <mxPoint x="339.5" y="625" as="sourcePoint" />
            <mxPoint x="339.5" y="685" as="targetPoint" />
          </mxGeometry>
        </mxCell>
        <mxCell id="FcQ-IKqGeZoEcgifagWt-13" value="Kết thúc" style="strokeWidth=2;html=1;shape=mxgraph.flowchart.terminator;whiteSpace=wrap;fontSize=20;strokeColor=#FF0000;fontColor=#FF0000;fillColor=none;fontFamily=consolas;" parent="FcQ-IKqGeZoEcgifagWt-1" vertex="1">
          <mxGeometry x="670" y="558.5" width="120" height="60" as="geometry" />
        </mxCell>
        <mxCell id="FcQ-IKqGeZoEcgifagWt-15" value="i = i + 1" style="rounded=1;whiteSpace=wrap;html=1;absoluteArcSize=1;arcSize=14;strokeWidth=2;fontFamily=consolas;fontSize=20;strokeColor=#FF8433;fontColor=#FF8433;fillColor=none;" parent="FcQ-IKqGeZoEcgifagWt-1" vertex="1">
          <mxGeometry x="-55" y="559.5" width="150" height="58" as="geometry" />
        </mxCell>
        <mxCell id="FcQ-IKqGeZoEcgifagWt-16" value="" style="endArrow=classic;html=1;fontFamily=consolas;fontSize=20;strokeWidth=3;fillColor=#a20025;strokeColor=#FF8433;exitX=0.5;exitY=0;exitDx=0;exitDy=0;" parent="FcQ-IKqGeZoEcgifagWt-1" source="FcQ-IKqGeZoEcgifagWt-15" edge="1">
          <mxGeometry width="50" height="50" relative="1" as="geometry">
            <mxPoint x="125" y="550" as="sourcePoint" />
            <mxPoint x="340" y="530" as="targetPoint" />
            <Array as="points">
              <mxPoint x="20" y="530" />
            </Array>
          </mxGeometry>
        </mxCell>
        <mxCell id="FcQ-IKqGeZoEcgifagWt-18" value="" style="endArrow=classic;html=1;fontFamily=consolas;fontSize=20;strokeWidth=3;fillColor=#a20025;strokeColor=#FF8433;exitX=0.5;exitY=1;exitDx=0;exitDy=0;entryX=0.5;entryY=0;entryDx=0;entryDy=0;exitPerimeter=0;" parent="FcQ-IKqGeZoEcgifagWt-1" source="FcQ-IKqGeZoEcgifagWt-9" target="9K2SOiTvci6g_OYoI1nr-0" edge="1">
          <mxGeometry width="50" height="50" relative="1" as="geometry">
            <mxPoint x="350" y="510" as="sourcePoint" />
            <mxPoint x="340" y="670" as="targetPoint" />
          </mxGeometry>
        </mxCell>
        <mxCell id="FcQ-IKqGeZoEcgifagWt-19" value="True" style="edgeLabel;html=1;align=center;verticalAlign=middle;resizable=0;points=[];fontFamily=consolas;fontSize=20;fontColor=#FF8433;labelBackgroundColor=none;" parent="FcQ-IKqGeZoEcgifagWt-1" vertex="1" connectable="0">
          <mxGeometry x="369.99990606410006" y="640.0017532594911" as="geometry" />
        </mxCell>
        <mxCell id="FcQ-IKqGeZoEcgifagWt-20" value="" style="endArrow=classic;html=1;fontFamily=consolas;fontSize=20;strokeWidth=3;fillColor=#a20025;strokeColor=#FF8433;exitX=1;exitY=0.5;exitDx=0;exitDy=0;exitPerimeter=0;entryX=0;entryY=0.5;entryDx=0;entryDy=0;" parent="FcQ-IKqGeZoEcgifagWt-1" source="FcQ-IKqGeZoEcgifagWt-9" target="9K2SOiTvci6g_OYoI1nr-6" edge="1">
          <mxGeometry width="50" height="50" relative="1" as="geometry">
            <mxPoint x="350" y="625" as="sourcePoint" />
            <mxPoint x="720" y="630" as="targetPoint" />
            <Array as="points" />
          </mxGeometry>
        </mxCell>
        <mxCell id="FcQ-IKqGeZoEcgifagWt-21" value="&lt;font data-font-src=&quot;https://fonts.google.com/specimen/Roboto&quot; style=&quot;font-size: 20px&quot;&gt;False&lt;/font&gt;" style="edgeLabel;html=1;align=center;verticalAlign=middle;resizable=0;points=[];fontColor=#FF8433;labelBackgroundColor=none;fontFamily=consolas;" parent="FcQ-IKqGeZoEcgifagWt-20" vertex="1" connectable="0">
          <mxGeometry x="-0.3948" y="-1" relative="1" as="geometry">
            <mxPoint x="2" y="-16" as="offset" />
          </mxGeometry>
        </mxCell>
        <mxCell id="9K2SOiTvci6g_OYoI1nr-0" value="Tìm m là vị trí của phần tử nhỏ nhất trong đoạn [i, n)" style="rounded=1;whiteSpace=wrap;html=1;absoluteArcSize=1;arcSize=14;strokeWidth=2;fontFamily=consolas;fontSize=20;strokeColor=#FF748C;fontColor=#FF748C;fillColor=none;" parent="FcQ-IKqGeZoEcgifagWt-1" vertex="1">
          <mxGeometry x="170" y="670" width="340" height="80" as="geometry" />
        </mxCell>
        <mxCell id="9K2SOiTvci6g_OYoI1nr-2" value="Hoán vị&lt;br&gt;A[i] và A[m]" style="rounded=1;whiteSpace=wrap;html=1;absoluteArcSize=1;arcSize=14;strokeWidth=2;fontFamily=consolas;fontSize=20;strokeColor=#FF8433;fontColor=#FF8433;fillColor=none;" parent="FcQ-IKqGeZoEcgifagWt-1" vertex="1">
          <mxGeometry x="-80" y="670" width="200" height="80" as="geometry" />
        </mxCell>
        <mxCell id="9K2SOiTvci6g_OYoI1nr-3" value="" style="endArrow=classic;html=1;fontFamily=consolas;fontSize=20;strokeWidth=3;fillColor=#a20025;strokeColor=#FF748C;entryX=1;entryY=0.5;entryDx=0;entryDy=0;exitX=0;exitY=0.5;exitDx=0;exitDy=0;" parent="FcQ-IKqGeZoEcgifagWt-1" source="9K2SOiTvci6g_OYoI1nr-0" target="9K2SOiTvci6g_OYoI1nr-2" edge="1">
          <mxGeometry width="50" height="50" relative="1" as="geometry">
            <mxPoint x="120" y="730" as="sourcePoint" />
            <mxPoint x="750" y="710" as="targetPoint" />
          </mxGeometry>
        </mxCell>
        <mxCell id="9K2SOiTvci6g_OYoI1nr-5" value="" style="endArrow=classic;html=1;fontFamily=consolas;fontSize=20;strokeWidth=3;fillColor=#a20025;strokeColor=#FF8433;exitX=0.5;exitY=0;exitDx=0;exitDy=0;entryX=0.5;entryY=1;entryDx=0;entryDy=0;" parent="FcQ-IKqGeZoEcgifagWt-1" source="9K2SOiTvci6g_OYoI1nr-2" target="FcQ-IKqGeZoEcgifagWt-15" edge="1">
          <mxGeometry width="50" height="50" relative="1" as="geometry">
            <mxPoint x="1241.6" y="800" as="sourcePoint" />
            <mxPoint x="750" y="710" as="targetPoint" />
          </mxGeometry>
        </mxCell>
        <mxCell id="9K2SOiTvci6g_OYoI1nr-6" value="Output: &lt;font&gt;A&lt;/font&gt;" style="shape=parallelogram;html=1;strokeWidth=2;perimeter=parallelogramPerimeter;whiteSpace=wrap;rounded=1;arcSize=12;size=0.23;fontSize=20;fontFamily=consolas;strokeColor=#FFCC3B;fillColor=none;gradientColor=#ffd966;fontColor=#FFCC3B;" parent="FcQ-IKqGeZoEcgifagWt-1" vertex="1">
          <mxGeometry x="480" y="558.5" width="160" height="60" as="geometry" />
        </mxCell>
        <mxCell id="9K2SOiTvci6g_OYoI1nr-7" value="" style="endArrow=classic;html=1;fontFamily=consolas;fontSize=20;strokeWidth=3;fillColor=#a20025;strokeColor=#FFCC3B;exitX=1;exitY=0.5;exitDx=0;exitDy=0;entryX=0;entryY=0.5;entryDx=0;entryDy=0;entryPerimeter=0;" parent="FcQ-IKqGeZoEcgifagWt-1" source="9K2SOiTvci6g_OYoI1nr-6" target="FcQ-IKqGeZoEcgifagWt-13" edge="1">
          <mxGeometry width="50" height="50" relative="1" as="geometry">
            <mxPoint x="380" y="410" as="sourcePoint" />
            <mxPoint x="770" y="590" as="targetPoint" />
          </mxGeometry>
        </mxCell>
      </root>
    </mxGraphModel>
  </diagram>
  <diagram name="selection sort illustration" id="g52jE-6Veig9-7sEu9ij">
    <mxGraphModel dx="1420" dy="992" grid="1" gridSize="10" guides="1" tooltips="1" connect="1" arrows="1" fold="1" page="1" pageScale="1" pageWidth="850" pageHeight="1100" math="0" shadow="0">
      <root>
        <mxCell id="NtU4ty9qqIFVhlCbAvxt-0" />
        <mxCell id="NtU4ty9qqIFVhlCbAvxt-1" parent="NtU4ty9qqIFVhlCbAvxt-0" />
        <mxCell id="NtU4ty9qqIFVhlCbAvxt-2" value="" style="rounded=1;whiteSpace=wrap;html=1;strokeWidth=2;fillColor=#FF8433;strokeColor=none;" parent="NtU4ty9qqIFVhlCbAvxt-1" vertex="1">
          <mxGeometry x="160" y="490" width="20" height="70" as="geometry" />
        </mxCell>
        <mxCell id="NtU4ty9qqIFVhlCbAvxt-3" value="" style="rounded=1;whiteSpace=wrap;html=1;strokeWidth=2;fillColor=none;strokeColor=#0099CC;" parent="NtU4ty9qqIFVhlCbAvxt-1" vertex="1">
          <mxGeometry x="220" y="500" width="20" height="60" as="geometry" />
        </mxCell>
        <mxCell id="NtU4ty9qqIFVhlCbAvxt-4" value="" style="rounded=1;whiteSpace=wrap;html=1;strokeWidth=2;fillColor=#FF748C;strokeColor=none;fontFamily=Segoe UI Variable Display;fontSize=16;" parent="NtU4ty9qqIFVhlCbAvxt-1" vertex="1">
          <mxGeometry x="250" y="510" width="20" height="50" as="geometry" />
        </mxCell>
        <mxCell id="NtU4ty9qqIFVhlCbAvxt-5" value="" style="edgeStyle=segmentEdgeStyle;endArrow=blockThin;html=1;rounded=1;strokeWidth=3;strokeColor=#FF748C;startArrow=blockThin;startFill=1;endFill=1;" parent="NtU4ty9qqIFVhlCbAvxt-1" edge="1">
          <mxGeometry width="50" height="50" relative="1" as="geometry">
            <mxPoint x="260" y="560" as="sourcePoint" />
            <mxPoint x="170" y="560" as="targetPoint" />
            <Array as="points">
              <mxPoint x="260" y="590" />
              <mxPoint x="170" y="590" />
            </Array>
          </mxGeometry>
        </mxCell>
        <mxCell id="NtU4ty9qqIFVhlCbAvxt-6" value="" style="rounded=1;whiteSpace=wrap;html=1;strokeWidth=2;fillColor=#ffcc3b;strokeColor=none;" parent="NtU4ty9qqIFVhlCbAvxt-1" vertex="1">
          <mxGeometry x="130" y="520" width="20" height="40" as="geometry" />
        </mxCell>
        <mxCell id="NtU4ty9qqIFVhlCbAvxt-7" value="" style="rounded=1;whiteSpace=wrap;html=1;strokeWidth=2;fillColor=#ffcc3b;strokeColor=none;" parent="NtU4ty9qqIFVhlCbAvxt-1" vertex="1">
          <mxGeometry x="100" y="530" width="20" height="30" as="geometry" />
        </mxCell>
        <mxCell id="NtU4ty9qqIFVhlCbAvxt-8" value="" style="rounded=1;whiteSpace=wrap;html=1;strokeWidth=2;fillColor=#ffcc3b;strokeColor=none;" parent="NtU4ty9qqIFVhlCbAvxt-1" vertex="1">
          <mxGeometry x="70" y="540" width="20" height="20" as="geometry" />
        </mxCell>
        <mxCell id="NtU4ty9qqIFVhlCbAvxt-9" value="" style="rounded=1;whiteSpace=wrap;html=1;strokeWidth=2;fillColor=none;strokeColor=#0099CC;" parent="NtU4ty9qqIFVhlCbAvxt-1" vertex="1">
          <mxGeometry x="190" y="475" width="20" height="85" as="geometry" />
        </mxCell>
        <mxCell id="NtU4ty9qqIFVhlCbAvxt-10" value="" style="rounded=1;whiteSpace=wrap;html=1;strokeWidth=2;fillColor=none;strokeColor=#0099CC;" parent="NtU4ty9qqIFVhlCbAvxt-1" vertex="1">
          <mxGeometry x="280" y="480" width="20" height="80" as="geometry" />
        </mxCell>
        <mxCell id="NtU4ty9qqIFVhlCbAvxt-11" value="" style="rounded=1;whiteSpace=wrap;html=1;strokeWidth=2;fillColor=none;strokeColor=#0099CC;" parent="NtU4ty9qqIFVhlCbAvxt-1" vertex="1">
          <mxGeometry x="310" y="490" width="20" height="70" as="geometry" />
        </mxCell>
        <mxCell id="NtU4ty9qqIFVhlCbAvxt-12" value="&lt;font&gt;min&lt;/font&gt;" style="text;html=1;strokeColor=none;fillColor=none;align=center;verticalAlign=middle;whiteSpace=wrap;rounded=0;fontFamily=consolas;fontSize=16;fontColor=#FF748C;" parent="NtU4ty9qqIFVhlCbAvxt-1" vertex="1">
          <mxGeometry x="245" y="490" width="30" height="20" as="geometry" />
        </mxCell>
        <mxCell id="NtU4ty9qqIFVhlCbAvxt-13" value="" style="rounded=1;whiteSpace=wrap;html=1;strokeWidth=2;fillColor=none;strokeColor=#0099CC;" parent="NtU4ty9qqIFVhlCbAvxt-1" vertex="1">
          <mxGeometry x="250" y="625" width="20" height="70" as="geometry" />
        </mxCell>
        <mxCell id="NtU4ty9qqIFVhlCbAvxt-14" value="" style="rounded=1;whiteSpace=wrap;html=1;strokeWidth=2;fillColor=none;strokeColor=#0099CC;" parent="NtU4ty9qqIFVhlCbAvxt-1" vertex="1">
          <mxGeometry x="220" y="635" width="20" height="60" as="geometry" />
        </mxCell>
        <mxCell id="NtU4ty9qqIFVhlCbAvxt-16" value="" style="rounded=1;whiteSpace=wrap;html=1;strokeWidth=2;fillColor=#ffcc3b;strokeColor=none;" parent="NtU4ty9qqIFVhlCbAvxt-1" vertex="1">
          <mxGeometry x="130" y="655" width="20" height="40" as="geometry" />
        </mxCell>
        <mxCell id="NtU4ty9qqIFVhlCbAvxt-17" value="" style="rounded=1;whiteSpace=wrap;html=1;strokeWidth=2;fillColor=#ffcc3b;strokeColor=none;" parent="NtU4ty9qqIFVhlCbAvxt-1" vertex="1">
          <mxGeometry x="100" y="665" width="20" height="30" as="geometry" />
        </mxCell>
        <mxCell id="NtU4ty9qqIFVhlCbAvxt-18" value="" style="rounded=1;whiteSpace=wrap;html=1;strokeWidth=2;fillColor=#ffcc3b;strokeColor=none;" parent="NtU4ty9qqIFVhlCbAvxt-1" vertex="1">
          <mxGeometry x="70" y="675" width="20" height="20" as="geometry" />
        </mxCell>
        <mxCell id="NtU4ty9qqIFVhlCbAvxt-19" value="" style="rounded=1;whiteSpace=wrap;html=1;strokeWidth=2;fillColor=none;strokeColor=#0099CC;" parent="NtU4ty9qqIFVhlCbAvxt-1" vertex="1">
          <mxGeometry x="190" y="610" width="20" height="85" as="geometry" />
        </mxCell>
        <mxCell id="NtU4ty9qqIFVhlCbAvxt-20" value="" style="rounded=1;whiteSpace=wrap;html=1;strokeWidth=2;fillColor=none;strokeColor=#0099CC;" parent="NtU4ty9qqIFVhlCbAvxt-1" vertex="1">
          <mxGeometry x="280" y="615" width="20" height="80" as="geometry" />
        </mxCell>
        <mxCell id="NtU4ty9qqIFVhlCbAvxt-21" value="" style="rounded=1;whiteSpace=wrap;html=1;strokeWidth=2;fillColor=none;strokeColor=#0099CC;" parent="NtU4ty9qqIFVhlCbAvxt-1" vertex="1">
          <mxGeometry x="310" y="625" width="20" height="70" as="geometry" />
        </mxCell>
        <mxCell id="NtU4ty9qqIFVhlCbAvxt-23" value="" style="rounded=1;whiteSpace=wrap;html=1;strokeWidth=2;fillColor=#FF748C;strokeColor=none;fontFamily=Segoe UI Variable Display;fontSize=16;" parent="NtU4ty9qqIFVhlCbAvxt-1" vertex="1">
          <mxGeometry x="160" y="645" width="20" height="50" as="geometry" />
        </mxCell>
        <mxCell id="NtU4ty9qqIFVhlCbAvxt-24" value="&lt;font&gt;min&lt;/font&gt;" style="text;html=1;strokeColor=none;fillColor=none;align=center;verticalAlign=middle;whiteSpace=wrap;rounded=0;fontFamily=consolas;fontSize=16;fontColor=#FF748C;" parent="NtU4ty9qqIFVhlCbAvxt-1" vertex="1">
          <mxGeometry x="155" y="625" width="30" height="20" as="geometry" />
        </mxCell>
        <mxCell id="kGoB8uYzbpZjPzcJLsVI-0" value="" style="shape=curlyBracket;whiteSpace=wrap;html=1;rounded=1;strokeColor=#FFCC3B;fillColor=none;rotation=-90;" parent="NtU4ty9qqIFVhlCbAvxt-1" vertex="1">
          <mxGeometry x="113.13" y="651.88" width="20" height="115" as="geometry" />
        </mxCell>
        <mxCell id="kGoB8uYzbpZjPzcJLsVI-1" value="" style="shape=curlyBracket;whiteSpace=wrap;html=1;rounded=1;strokeColor=#0099CC;fillColor=none;rotation=-90;" parent="NtU4ty9qqIFVhlCbAvxt-1" vertex="1">
          <mxGeometry x="251.56" y="630.32" width="20" height="158.12" as="geometry" />
        </mxCell>
        <mxCell id="kGoB8uYzbpZjPzcJLsVI-2" value="&lt;font&gt;already sorted&lt;/font&gt;" style="text;html=1;strokeColor=none;fillColor=none;align=center;verticalAlign=middle;whiteSpace=wrap;rounded=0;fontFamily=Segoe UI Variable Display;fontSize=16;fontColor=#FFCC3B;" parent="NtU4ty9qqIFVhlCbAvxt-1" vertex="1">
          <mxGeometry x="60" y="720" width="120" height="20" as="geometry" />
        </mxCell>
        <mxCell id="kGoB8uYzbpZjPzcJLsVI-3" value="&lt;font&gt;not yet sorted&lt;/font&gt;" style="text;html=1;strokeColor=none;fillColor=none;align=center;verticalAlign=middle;whiteSpace=wrap;rounded=0;fontFamily=Segoe UI Variable Display;fontSize=16;fontColor=#0099CC;" parent="NtU4ty9qqIFVhlCbAvxt-1" vertex="1">
          <mxGeometry x="185" y="720" width="155" height="20" as="geometry" />
        </mxCell>
      </root>
    </mxGraphModel>
  </diagram>
  <diagram name="insertion sort flowchart" id="SwUpyHYfD81hnFc9gRrH">
    <mxGraphModel dx="2247" dy="992" grid="1" gridSize="10" guides="1" tooltips="1" connect="1" arrows="1" fold="1" page="1" pageScale="1" pageWidth="827" pageHeight="1169" math="0" shadow="0">
      <root>
        <mxCell id="n8hGxBmvuxmy6V2A315W-0" />
        <mxCell id="n8hGxBmvuxmy6V2A315W-1" parent="n8hGxBmvuxmy6V2A315W-0" />
        <mxCell id="n8hGxBmvuxmy6V2A315W-2" value="Bắt đầu" style="strokeWidth=2;html=1;shape=mxgraph.flowchart.terminator;whiteSpace=wrap;fontSize=20;fontFamily=consolas;strokeColor=#00FF80;fontColor=#00FF80;fillColor=none;" parent="n8hGxBmvuxmy6V2A315W-1" vertex="1">
          <mxGeometry x="280" y="250" width="120" height="60" as="geometry" />
        </mxCell>
        <mxCell id="n8hGxBmvuxmy6V2A315W-3" value="Input: A, n" style="shape=parallelogram;html=1;strokeWidth=2;perimeter=parallelogramPerimeter;whiteSpace=wrap;rounded=1;arcSize=12;size=0.23;fontSize=20;fontFamily=consolas;strokeColor=#0099CC;fillColor=none;gradientColor=#ffd966;fontColor=#0099CC;" parent="n8hGxBmvuxmy6V2A315W-1" vertex="1">
          <mxGeometry x="230" y="350" width="220" height="60" as="geometry" />
        </mxCell>
        <mxCell id="n8hGxBmvuxmy6V2A315W-4" value="i = 1" style="rounded=1;whiteSpace=wrap;html=1;absoluteArcSize=1;arcSize=14;strokeWidth=2;fontFamily=consolas;fontSize=20;strokeColor=#FF8433;fontColor=#FF8433;fillColor=none;" parent="n8hGxBmvuxmy6V2A315W-1" vertex="1">
          <mxGeometry x="260" y="452.5" width="160" height="60" as="geometry" />
        </mxCell>
        <mxCell id="n8hGxBmvuxmy6V2A315W-5" value="" style="endArrow=classic;html=1;fontFamily=consolas;fontSize=20;strokeWidth=3;fillColor=#a20025;strokeColor=#00FF80;exitX=0.5;exitY=1;exitDx=0;exitDy=0;exitPerimeter=0;entryX=0.5;entryY=0;entryDx=0;entryDy=0;" parent="n8hGxBmvuxmy6V2A315W-1" source="n8hGxBmvuxmy6V2A315W-2" target="n8hGxBmvuxmy6V2A315W-3" edge="1">
          <mxGeometry width="50" height="50" relative="1" as="geometry">
            <mxPoint x="560" y="590" as="sourcePoint" />
            <mxPoint x="330" y="290" as="targetPoint" />
          </mxGeometry>
        </mxCell>
        <mxCell id="n8hGxBmvuxmy6V2A315W-6" value="" style="endArrow=classic;html=1;fontFamily=consolas;fontSize=20;strokeWidth=3;fillColor=#a20025;strokeColor=#0099CC;exitX=0.5;exitY=1;exitDx=0;exitDy=0;entryX=0.5;entryY=0;entryDx=0;entryDy=0;" parent="n8hGxBmvuxmy6V2A315W-1" source="n8hGxBmvuxmy6V2A315W-3" target="n8hGxBmvuxmy6V2A315W-4" edge="1">
          <mxGeometry width="50" height="50" relative="1" as="geometry">
            <mxPoint x="550" y="400" as="sourcePoint" />
            <mxPoint x="550" y="460" as="targetPoint" />
          </mxGeometry>
        </mxCell>
        <mxCell id="n8hGxBmvuxmy6V2A315W-7" value="i &amp;lt; n" style="strokeWidth=2;html=1;shape=mxgraph.flowchart.decision;whiteSpace=wrap;fontFamily=consolas;fontSize=20;strokeColor=#FF8433;fontColor=#ff8433;fillColor=none;" parent="n8hGxBmvuxmy6V2A315W-1" vertex="1">
          <mxGeometry x="260" y="557" width="160" height="63" as="geometry" />
        </mxCell>
        <mxCell id="n8hGxBmvuxmy6V2A315W-8" value="" style="endArrow=classic;html=1;fontFamily=consolas;fontSize=20;strokeWidth=3;fillColor=#a20025;strokeColor=#FF8433;exitX=0.5;exitY=1;exitDx=0;exitDy=0;entryX=0.5;entryY=0;entryDx=0;entryDy=0;entryPerimeter=0;" parent="n8hGxBmvuxmy6V2A315W-1" source="n8hGxBmvuxmy6V2A315W-4" target="n8hGxBmvuxmy6V2A315W-7" edge="1">
          <mxGeometry width="50" height="50" relative="1" as="geometry">
            <mxPoint x="339.5" y="625" as="sourcePoint" />
            <mxPoint x="339.5" y="685" as="targetPoint" />
          </mxGeometry>
        </mxCell>
        <mxCell id="n8hGxBmvuxmy6V2A315W-9" value="Kết thúc" style="strokeWidth=2;html=1;shape=mxgraph.flowchart.terminator;whiteSpace=wrap;fontSize=20;strokeColor=#FF0000;fontColor=#FF0000;fillColor=none;fontFamily=consolas;" parent="n8hGxBmvuxmy6V2A315W-1" vertex="1">
          <mxGeometry x="680" y="558.5" width="120" height="60" as="geometry" />
        </mxCell>
        <mxCell id="n8hGxBmvuxmy6V2A315W-10" value="i = i + 1" style="rounded=1;whiteSpace=wrap;html=1;absoluteArcSize=1;arcSize=14;strokeWidth=2;fontFamily=consolas;fontSize=20;strokeColor=#FF8433;fontColor=#ff8433;fillColor=none;" parent="n8hGxBmvuxmy6V2A315W-1" vertex="1">
          <mxGeometry x="-100" y="670" width="150" height="58" as="geometry" />
        </mxCell>
        <mxCell id="n8hGxBmvuxmy6V2A315W-11" value="" style="endArrow=classic;html=1;fontFamily=consolas;fontSize=20;strokeWidth=3;fillColor=#a20025;strokeColor=#FF8433;exitX=0.5;exitY=0;exitDx=0;exitDy=0;" parent="n8hGxBmvuxmy6V2A315W-1" source="n8hGxBmvuxmy6V2A315W-10" edge="1">
          <mxGeometry width="50" height="50" relative="1" as="geometry">
            <mxPoint x="125" y="550" as="sourcePoint" />
            <mxPoint x="340" y="530" as="targetPoint" />
            <Array as="points">
              <mxPoint x="-25" y="530" />
            </Array>
          </mxGeometry>
        </mxCell>
        <mxCell id="n8hGxBmvuxmy6V2A315W-12" value="" style="endArrow=classic;html=1;fontFamily=consolas;fontSize=20;strokeWidth=3;fillColor=#a20025;strokeColor=#FF8433;exitX=0.5;exitY=1;exitDx=0;exitDy=0;entryX=0.5;entryY=0;entryDx=0;entryDy=0;exitPerimeter=0;" parent="n8hGxBmvuxmy6V2A315W-1" source="n8hGxBmvuxmy6V2A315W-7" target="n8hGxBmvuxmy6V2A315W-24" edge="1">
          <mxGeometry width="50" height="50" relative="1" as="geometry">
            <mxPoint x="350" y="510" as="sourcePoint" />
            <mxPoint x="340" y="670" as="targetPoint" />
          </mxGeometry>
        </mxCell>
        <mxCell id="n8hGxBmvuxmy6V2A315W-13" value="True" style="edgeLabel;html=1;align=center;verticalAlign=middle;resizable=0;points=[];fontFamily=consolas;fontSize=20;fontColor=#FF8433;labelBackgroundColor=none;" parent="n8hGxBmvuxmy6V2A315W-1" vertex="1" connectable="0">
          <mxGeometry x="369.99990606410006" y="640.0017532594911" as="geometry" />
        </mxCell>
        <mxCell id="n8hGxBmvuxmy6V2A315W-14" value="" style="endArrow=classic;html=1;fontFamily=consolas;fontSize=20;strokeWidth=3;fillColor=#a20025;strokeColor=#FF8433;exitX=1;exitY=0.5;exitDx=0;exitDy=0;exitPerimeter=0;entryX=0;entryY=0.5;entryDx=0;entryDy=0;" parent="n8hGxBmvuxmy6V2A315W-1" source="n8hGxBmvuxmy6V2A315W-7" target="n8hGxBmvuxmy6V2A315W-20" edge="1">
          <mxGeometry width="50" height="50" relative="1" as="geometry">
            <mxPoint x="350" y="625" as="sourcePoint" />
            <mxPoint x="720" y="630" as="targetPoint" />
            <Array as="points" />
          </mxGeometry>
        </mxCell>
        <mxCell id="n8hGxBmvuxmy6V2A315W-15" value="&lt;font data-font-src=&quot;https://fonts.google.com/specimen/Roboto&quot; style=&quot;font-size: 20px&quot;&gt;False&lt;/font&gt;" style="edgeLabel;html=1;align=center;verticalAlign=middle;resizable=0;points=[];fontColor=#FF8433;labelBackgroundColor=none;fontFamily=consolas;" parent="n8hGxBmvuxmy6V2A315W-14" vertex="1" connectable="0">
          <mxGeometry x="-0.3948" y="-1" relative="1" as="geometry">
            <mxPoint x="2" y="-16" as="offset" />
          </mxGeometry>
        </mxCell>
        <mxCell id="n8hGxBmvuxmy6V2A315W-17" value="A[j + 1] = tmp" style="rounded=1;whiteSpace=wrap;html=1;absoluteArcSize=1;arcSize=14;strokeWidth=2;fontFamily=consolas;fontSize=20;strokeColor=#FF8433;fontColor=#ff8433;fillColor=none;" parent="n8hGxBmvuxmy6V2A315W-1" vertex="1">
          <mxGeometry x="-130" y="780" width="210" height="80" as="geometry" />
        </mxCell>
        <mxCell id="n8hGxBmvuxmy6V2A315W-18" value="" style="endArrow=classic;html=1;fontFamily=consolas;fontSize=20;strokeWidth=3;fillColor=#a20025;strokeColor=#FF8433;entryX=0.5;entryY=0;entryDx=0;entryDy=0;exitX=0.5;exitY=1;exitDx=0;exitDy=0;" parent="n8hGxBmvuxmy6V2A315W-1" source="n8hGxBmvuxmy6V2A315W-24" target="n8hGxBmvuxmy6V2A315W-23" edge="1">
          <mxGeometry width="50" height="50" relative="1" as="geometry">
            <mxPoint x="120" y="730" as="sourcePoint" />
            <mxPoint x="750" y="710" as="targetPoint" />
          </mxGeometry>
        </mxCell>
        <mxCell id="n8hGxBmvuxmy6V2A315W-19" value="" style="endArrow=classic;html=1;fontFamily=consolas;fontSize=20;strokeWidth=3;fillColor=#a20025;strokeColor=#FF8433;exitX=0.5;exitY=0;exitDx=0;exitDy=0;entryX=0.5;entryY=1;entryDx=0;entryDy=0;" parent="n8hGxBmvuxmy6V2A315W-1" source="n8hGxBmvuxmy6V2A315W-17" target="n8hGxBmvuxmy6V2A315W-10" edge="1">
          <mxGeometry width="50" height="50" relative="1" as="geometry">
            <mxPoint x="1261.6" y="800" as="sourcePoint" />
            <mxPoint x="770" y="710" as="targetPoint" />
          </mxGeometry>
        </mxCell>
        <mxCell id="n8hGxBmvuxmy6V2A315W-20" value="Output: A" style="shape=parallelogram;html=1;strokeWidth=2;perimeter=parallelogramPerimeter;whiteSpace=wrap;rounded=1;arcSize=12;size=0.23;fontSize=20;fontFamily=consolas;strokeColor=#ffcc3b;fillColor=none;gradientColor=#ffd966;fontColor=#ffcc3b;" parent="n8hGxBmvuxmy6V2A315W-1" vertex="1">
          <mxGeometry x="480" y="558.5" width="170" height="60" as="geometry" />
        </mxCell>
        <mxCell id="n8hGxBmvuxmy6V2A315W-21" value="" style="endArrow=classic;html=1;fontFamily=consolas;fontSize=20;strokeWidth=3;fillColor=#a20025;strokeColor=#FFB570;exitX=1;exitY=0.5;exitDx=0;exitDy=0;entryX=0;entryY=0.5;entryDx=0;entryDy=0;entryPerimeter=0;" parent="n8hGxBmvuxmy6V2A315W-1" source="n8hGxBmvuxmy6V2A315W-20" target="n8hGxBmvuxmy6V2A315W-9" edge="1">
          <mxGeometry width="50" height="50" relative="1" as="geometry">
            <mxPoint x="370" y="410" as="sourcePoint" />
            <mxPoint x="760" y="590" as="targetPoint" />
          </mxGeometry>
        </mxCell>
        <mxCell id="n8hGxBmvuxmy6V2A315W-23" value="Duyệt từ i - 1 ngược về đầu mảng,&lt;br&gt;cho đến khi gặp A[j] &amp;lt;=&amp;nbsp;tmp.&lt;br&gt;Ứng với mỗi A[j]: A[j + 1] = A[j]" style="rounded=1;whiteSpace=wrap;html=1;absoluteArcSize=1;arcSize=14;strokeWidth=2;fontFamily=consolas;fontSize=20;strokeColor=#00e673;fontColor=#00e673;fillColor=none;" parent="n8hGxBmvuxmy6V2A315W-1" vertex="1">
          <mxGeometry x="140" y="770" width="400" height="100" as="geometry" />
        </mxCell>
        <mxCell id="n8hGxBmvuxmy6V2A315W-24" value="tmp = A[i]" style="rounded=1;whiteSpace=wrap;html=1;absoluteArcSize=1;arcSize=14;strokeWidth=2;fontFamily=consolas;fontSize=20;strokeColor=#FF8433;fontColor=#ff8433;fillColor=none;" parent="n8hGxBmvuxmy6V2A315W-1" vertex="1">
          <mxGeometry x="235" y="670" width="210" height="58" as="geometry" />
        </mxCell>
        <mxCell id="n8hGxBmvuxmy6V2A315W-25" value="" style="endArrow=classic;html=1;fontFamily=consolas;fontSize=20;strokeWidth=3;fillColor=#a20025;strokeColor=#00E673;entryX=1;entryY=0.5;entryDx=0;entryDy=0;exitX=0;exitY=0.5;exitDx=0;exitDy=0;" parent="n8hGxBmvuxmy6V2A315W-1" source="n8hGxBmvuxmy6V2A315W-23" target="n8hGxBmvuxmy6V2A315W-17" edge="1">
          <mxGeometry width="50" height="50" relative="1" as="geometry">
            <mxPoint x="350" y="738" as="sourcePoint" />
            <mxPoint x="350" y="790" as="targetPoint" />
          </mxGeometry>
        </mxCell>
      </root>
    </mxGraphModel>
  </diagram>
  <diagram name="insertion sort illustration" id="RKlwTDB1rN8mqarC7UOR">
    <mxGraphModel dx="1420" dy="992" grid="1" gridSize="10" guides="1" tooltips="1" connect="1" arrows="1" fold="1" page="1" pageScale="1" pageWidth="850" pageHeight="1100" math="0" shadow="0">
      <root>
        <mxCell id="29BRqAdNC4ewfQVRm0Ns-0" />
        <mxCell id="29BRqAdNC4ewfQVRm0Ns-1" parent="29BRqAdNC4ewfQVRm0Ns-0" />
        <mxCell id="29BRqAdNC4ewfQVRm0Ns-9" value="" style="rounded=1;whiteSpace=wrap;html=1;strokeWidth=2;fillColor=none;strokeColor=#0099CC;" parent="29BRqAdNC4ewfQVRm0Ns-1" vertex="1">
          <mxGeometry x="170" y="490" width="20" height="70" as="geometry" />
        </mxCell>
        <mxCell id="29BRqAdNC4ewfQVRm0Ns-10" value="" style="rounded=1;whiteSpace=wrap;html=1;strokeWidth=2;fillColor=none;strokeColor=#0099CC;" parent="29BRqAdNC4ewfQVRm0Ns-1" vertex="1">
          <mxGeometry x="230" y="500" width="20" height="60" as="geometry" />
        </mxCell>
        <mxCell id="29BRqAdNC4ewfQVRm0Ns-11" value="" style="rounded=1;whiteSpace=wrap;html=1;strokeWidth=2;fillColor=#FF8433;strokeColor=none;fontFamily=Segoe UI Variable Display;fontSize=16;" parent="29BRqAdNC4ewfQVRm0Ns-1" vertex="1">
          <mxGeometry x="260" y="510" width="20" height="50" as="geometry" />
        </mxCell>
        <mxCell id="29BRqAdNC4ewfQVRm0Ns-12" value="" style="edgeStyle=segmentEdgeStyle;endArrow=classic;html=1;strokeWidth=3;strokeColor=#FF8433;startArrow=oval;startFill=1;jumpStyle=none;rounded=1;" parent="29BRqAdNC4ewfQVRm0Ns-1" edge="1">
          <mxGeometry width="50" height="50" relative="1" as="geometry">
            <mxPoint x="270" y="570" as="sourcePoint" />
            <mxPoint x="160" y="560" as="targetPoint" />
            <Array as="points">
              <mxPoint x="270" y="590" />
              <mxPoint x="160" y="590" />
            </Array>
          </mxGeometry>
        </mxCell>
        <mxCell id="29BRqAdNC4ewfQVRm0Ns-13" value="" style="rounded=1;whiteSpace=wrap;html=1;strokeWidth=2;fillColor=#FFCC3B;strokeColor=none;" parent="29BRqAdNC4ewfQVRm0Ns-1" vertex="1">
          <mxGeometry x="130" y="520" width="20" height="40" as="geometry" />
        </mxCell>
        <mxCell id="29BRqAdNC4ewfQVRm0Ns-14" value="" style="rounded=1;whiteSpace=wrap;html=1;strokeWidth=2;fillColor=#FFCC3B;strokeColor=none;" parent="29BRqAdNC4ewfQVRm0Ns-1" vertex="1">
          <mxGeometry x="100" y="530" width="20" height="30" as="geometry" />
        </mxCell>
        <mxCell id="29BRqAdNC4ewfQVRm0Ns-15" value="" style="rounded=1;whiteSpace=wrap;html=1;strokeWidth=2;fillColor=#FFCC3B;strokeColor=none;" parent="29BRqAdNC4ewfQVRm0Ns-1" vertex="1">
          <mxGeometry x="70" y="540" width="20" height="20" as="geometry" />
        </mxCell>
        <mxCell id="29BRqAdNC4ewfQVRm0Ns-16" value="" style="rounded=1;whiteSpace=wrap;html=1;strokeWidth=2;fillColor=none;strokeColor=#0099CC;" parent="29BRqAdNC4ewfQVRm0Ns-1" vertex="1">
          <mxGeometry x="200" y="475" width="20" height="85" as="geometry" />
        </mxCell>
        <mxCell id="29BRqAdNC4ewfQVRm0Ns-20" value="" style="rounded=1;whiteSpace=wrap;html=1;strokeWidth=2;fillColor=none;strokeColor=#0099CC;" parent="29BRqAdNC4ewfQVRm0Ns-1" vertex="1">
          <mxGeometry x="200" y="625" width="20" height="70" as="geometry" />
        </mxCell>
        <mxCell id="29BRqAdNC4ewfQVRm0Ns-21" value="" style="rounded=1;whiteSpace=wrap;html=1;strokeWidth=2;fillColor=none;strokeColor=#0099CC;" parent="29BRqAdNC4ewfQVRm0Ns-1" vertex="1">
          <mxGeometry x="260" y="635" width="20" height="60" as="geometry" />
        </mxCell>
        <mxCell id="29BRqAdNC4ewfQVRm0Ns-22" value="" style="rounded=1;whiteSpace=wrap;html=1;strokeWidth=2;fillColor=#FF8433;strokeColor=none;fontFamily=Segoe UI Variable Display;fontSize=16;" parent="29BRqAdNC4ewfQVRm0Ns-1" vertex="1">
          <mxGeometry x="165" y="645" width="20" height="50" as="geometry" />
        </mxCell>
        <mxCell id="29BRqAdNC4ewfQVRm0Ns-23" value="" style="rounded=1;whiteSpace=wrap;html=1;strokeWidth=2;fillColor=#FFCC3B;strokeColor=none;" parent="29BRqAdNC4ewfQVRm0Ns-1" vertex="1">
          <mxGeometry x="130" y="655" width="20" height="40" as="geometry" />
        </mxCell>
        <mxCell id="29BRqAdNC4ewfQVRm0Ns-24" value="" style="rounded=1;whiteSpace=wrap;html=1;strokeWidth=2;fillColor=#FFCC3B;strokeColor=none;" parent="29BRqAdNC4ewfQVRm0Ns-1" vertex="1">
          <mxGeometry x="100" y="665" width="20" height="30" as="geometry" />
        </mxCell>
        <mxCell id="29BRqAdNC4ewfQVRm0Ns-25" value="" style="rounded=1;whiteSpace=wrap;html=1;strokeWidth=2;fillColor=#FFCC3B;strokeColor=none;" parent="29BRqAdNC4ewfQVRm0Ns-1" vertex="1">
          <mxGeometry x="70" y="675" width="20" height="20" as="geometry" />
        </mxCell>
        <mxCell id="29BRqAdNC4ewfQVRm0Ns-26" value="" style="rounded=1;whiteSpace=wrap;html=1;strokeWidth=2;fillColor=none;strokeColor=#0099CC;" parent="29BRqAdNC4ewfQVRm0Ns-1" vertex="1">
          <mxGeometry x="230" y="610" width="20" height="85" as="geometry" />
        </mxCell>
        <mxCell id="GngvHm-kh3zbMgQrtzJC-0" value="&lt;font&gt;A[i]&lt;/font&gt;" style="text;html=1;strokeColor=none;fillColor=none;align=center;verticalAlign=middle;whiteSpace=wrap;rounded=0;fontFamily=consolas;fontSize=16;fontColor=#FF8433;" parent="29BRqAdNC4ewfQVRm0Ns-1" vertex="1">
          <mxGeometry x="255" y="490" width="30" height="20" as="geometry" />
        </mxCell>
        <mxCell id="GngvHm-kh3zbMgQrtzJC-1" value="&lt;font&gt;A[i]&lt;/font&gt;" style="text;html=1;strokeColor=none;fillColor=none;align=center;verticalAlign=middle;whiteSpace=wrap;rounded=0;fontFamily=consolas;fontSize=16;fontColor=#FF8433;" parent="29BRqAdNC4ewfQVRm0Ns-1" vertex="1">
          <mxGeometry x="160" y="625" width="30" height="20" as="geometry" />
        </mxCell>
        <mxCell id="LSBrQ-6ifYvhVTx15gMZ-0" value="" style="shape=curlyBracket;whiteSpace=wrap;html=1;rounded=1;strokeColor=#FFCC3B;fillColor=none;rotation=-90;" parent="29BRqAdNC4ewfQVRm0Ns-1" vertex="1">
          <mxGeometry x="119.69" y="645.32" width="20" height="128.12" as="geometry" />
        </mxCell>
        <mxCell id="LSBrQ-6ifYvhVTx15gMZ-1" value="" style="shape=curlyBracket;whiteSpace=wrap;html=1;rounded=1;strokeColor=#0099CC;fillColor=none;rotation=-90;" parent="29BRqAdNC4ewfQVRm0Ns-1" vertex="1">
          <mxGeometry x="232.89" y="659.15" width="20" height="100.46" as="geometry" />
        </mxCell>
        <mxCell id="LSBrQ-6ifYvhVTx15gMZ-2" value="&lt;font&gt;already sorted&lt;/font&gt;" style="text;html=1;strokeColor=none;fillColor=none;align=center;verticalAlign=middle;whiteSpace=wrap;rounded=0;fontFamily=Segoe UI Variable Display;fontSize=16;fontColor=#FFCC3B;" parent="29BRqAdNC4ewfQVRm0Ns-1" vertex="1">
          <mxGeometry x="69.69" y="720" width="120" height="20" as="geometry" />
        </mxCell>
        <mxCell id="LSBrQ-6ifYvhVTx15gMZ-3" value="&lt;font&gt;not yet sorted&lt;/font&gt;" style="text;html=1;strokeColor=none;fillColor=none;align=center;verticalAlign=middle;whiteSpace=wrap;rounded=0;fontFamily=Segoe UI Variable Display;fontSize=16;fontColor=#0099CC;" parent="29BRqAdNC4ewfQVRm0Ns-1" vertex="1">
          <mxGeometry x="165" y="720" width="155" height="20" as="geometry" />
        </mxCell>
      </root>
    </mxGraphModel>
  </diagram>
  <diagram name="bubble sort flowchart" id="WsuNt2lyusgpNkU86mhA">
    <mxGraphModel dx="811" dy="567" grid="1" gridSize="10" guides="1" tooltips="1" connect="1" arrows="1" fold="1" page="1" pageScale="1" pageWidth="827" pageHeight="1169" math="0" shadow="0">
      <root>
        <mxCell id="Si9Fz9xmtzH5b8jg9xg3-0" />
        <mxCell id="Si9Fz9xmtzH5b8jg9xg3-1" parent="Si9Fz9xmtzH5b8jg9xg3-0" />
        <mxCell id="Si9Fz9xmtzH5b8jg9xg3-2" value="Bắt đầu" style="strokeWidth=2;html=1;shape=mxgraph.flowchart.terminator;whiteSpace=wrap;fontSize=20;fontFamily=consolas;strokeColor=#00FF80;fontColor=#00FF80;fillColor=none;" parent="Si9Fz9xmtzH5b8jg9xg3-1" vertex="1">
          <mxGeometry x="280" y="270" width="120" height="60" as="geometry" />
        </mxCell>
        <mxCell id="Si9Fz9xmtzH5b8jg9xg3-3" value="Input: A, n" style="shape=parallelogram;html=1;strokeWidth=2;perimeter=parallelogramPerimeter;whiteSpace=wrap;rounded=1;arcSize=12;size=0.23;fontSize=20;fontFamily=consolas;strokeColor=#0099CC;fillColor=none;gradientColor=#ffd966;fontColor=#0099CC;" parent="Si9Fz9xmtzH5b8jg9xg3-1" vertex="1">
          <mxGeometry x="240" y="370" width="200" height="60" as="geometry" />
        </mxCell>
        <mxCell id="Si9Fz9xmtzH5b8jg9xg3-4" value="i = 0" style="rounded=1;whiteSpace=wrap;html=1;absoluteArcSize=1;arcSize=14;strokeWidth=2;fontFamily=consolas;fontSize=20;strokeColor=#1BA1E2;fontColor=#1BA1E2;fillColor=none;" parent="Si9Fz9xmtzH5b8jg9xg3-1" vertex="1">
          <mxGeometry x="260" y="470" width="160" height="60" as="geometry" />
        </mxCell>
        <mxCell id="Si9Fz9xmtzH5b8jg9xg3-5" value="" style="endArrow=classic;html=1;fontFamily=consolas;fontSize=20;strokeWidth=3;fillColor=#a20025;strokeColor=#00FF80;exitX=0.5;exitY=1;exitDx=0;exitDy=0;exitPerimeter=0;entryX=0.5;entryY=0;entryDx=0;entryDy=0;fontColor=#00FF80;" parent="Si9Fz9xmtzH5b8jg9xg3-1" source="Si9Fz9xmtzH5b8jg9xg3-2" target="Si9Fz9xmtzH5b8jg9xg3-3" edge="1">
          <mxGeometry width="50" height="50" relative="1" as="geometry">
            <mxPoint x="560" y="620" as="sourcePoint" />
            <mxPoint x="330" y="320" as="targetPoint" />
          </mxGeometry>
        </mxCell>
        <mxCell id="Si9Fz9xmtzH5b8jg9xg3-6" value="" style="endArrow=classic;html=1;fontFamily=consolas;fontSize=20;strokeWidth=3;fillColor=#a20025;strokeColor=#0099CC;exitX=0.5;exitY=1;exitDx=0;exitDy=0;entryX=0.5;entryY=0;entryDx=0;entryDy=0;" parent="Si9Fz9xmtzH5b8jg9xg3-1" source="Si9Fz9xmtzH5b8jg9xg3-3" target="Si9Fz9xmtzH5b8jg9xg3-4" edge="1">
          <mxGeometry width="50" height="50" relative="1" as="geometry">
            <mxPoint x="550" y="420" as="sourcePoint" />
            <mxPoint x="550" y="480" as="targetPoint" />
          </mxGeometry>
        </mxCell>
        <mxCell id="Si9Fz9xmtzH5b8jg9xg3-7" value="i &amp;lt; n - 1" style="strokeWidth=2;html=1;shape=mxgraph.flowchart.decision;whiteSpace=wrap;fontFamily=consolas;fontSize=20;strokeColor=#0099CC;fontColor=#0099CC;fillColor=none;" parent="Si9Fz9xmtzH5b8jg9xg3-1" vertex="1">
          <mxGeometry x="250" y="567" width="180" height="63" as="geometry" />
        </mxCell>
        <mxCell id="Si9Fz9xmtzH5b8jg9xg3-8" value="" style="endArrow=classic;html=1;fontFamily=consolas;fontSize=20;strokeWidth=3;fillColor=#a20025;strokeColor=#0099CC;exitX=0.5;exitY=1;exitDx=0;exitDy=0;entryX=0.5;entryY=0;entryDx=0;entryDy=0;entryPerimeter=0;" parent="Si9Fz9xmtzH5b8jg9xg3-1" source="Si9Fz9xmtzH5b8jg9xg3-4" target="Si9Fz9xmtzH5b8jg9xg3-7" edge="1">
          <mxGeometry width="50" height="50" relative="1" as="geometry">
            <mxPoint x="339.5" y="635" as="sourcePoint" />
            <mxPoint x="339.5" y="695" as="targetPoint" />
          </mxGeometry>
        </mxCell>
        <mxCell id="Si9Fz9xmtzH5b8jg9xg3-9" value="Kết thúc" style="strokeWidth=2;html=1;shape=mxgraph.flowchart.terminator;whiteSpace=wrap;fontSize=20;strokeColor=#FF0000;fontColor=#FF0000;fillColor=none;fontFamily=consolas;" parent="Si9Fz9xmtzH5b8jg9xg3-1" vertex="1">
          <mxGeometry x="680" y="568.5" width="120" height="60" as="geometry" />
        </mxCell>
        <mxCell id="Si9Fz9xmtzH5b8jg9xg3-10" value="i = i + 1" style="rounded=1;whiteSpace=wrap;html=1;absoluteArcSize=1;arcSize=14;strokeWidth=2;fontFamily=consolas;fontSize=20;strokeColor=#1BA1E2;fontColor=#1BA1E2;fillColor=none;" parent="Si9Fz9xmtzH5b8jg9xg3-1" vertex="1">
          <mxGeometry x="40" y="670" width="150" height="58" as="geometry" />
        </mxCell>
        <mxCell id="Si9Fz9xmtzH5b8jg9xg3-11" value="" style="endArrow=classic;html=1;fontFamily=consolas;fontSize=20;strokeWidth=3;fillColor=#a20025;strokeColor=#0099CC;exitX=0.5;exitY=0;exitDx=0;exitDy=0;" parent="Si9Fz9xmtzH5b8jg9xg3-1" source="Si9Fz9xmtzH5b8jg9xg3-10" edge="1">
          <mxGeometry width="50" height="50" relative="1" as="geometry">
            <mxPoint x="125" y="550" as="sourcePoint" />
            <mxPoint x="340" y="540" as="targetPoint" />
            <Array as="points">
              <mxPoint x="115" y="540" />
            </Array>
          </mxGeometry>
        </mxCell>
        <mxCell id="Si9Fz9xmtzH5b8jg9xg3-12" value="" style="endArrow=classic;html=1;fontFamily=consolas;fontSize=20;strokeWidth=3;fillColor=#a20025;strokeColor=#0099CC;exitX=0.5;exitY=1;exitDx=0;exitDy=0;entryX=0.5;entryY=0;entryDx=0;entryDy=0;exitPerimeter=0;" parent="Si9Fz9xmtzH5b8jg9xg3-1" source="Si9Fz9xmtzH5b8jg9xg3-7" target="Si9Fz9xmtzH5b8jg9xg3-22" edge="1">
          <mxGeometry width="50" height="50" relative="1" as="geometry">
            <mxPoint x="350" y="510" as="sourcePoint" />
            <mxPoint x="340" y="670" as="targetPoint" />
          </mxGeometry>
        </mxCell>
        <mxCell id="Si9Fz9xmtzH5b8jg9xg3-13" value="True" style="edgeLabel;html=1;align=center;verticalAlign=middle;resizable=0;points=[];fontFamily=consolas;fontSize=20;fontColor=#0099CC;labelBackgroundColor=none;" parent="Si9Fz9xmtzH5b8jg9xg3-1" vertex="1" connectable="0">
          <mxGeometry x="369.99990606410006" y="650.0017532594911" as="geometry" />
        </mxCell>
        <mxCell id="Si9Fz9xmtzH5b8jg9xg3-14" value="" style="endArrow=classic;html=1;fontFamily=consolas;fontSize=20;strokeWidth=3;fillColor=#a20025;strokeColor=#0099CC;exitX=1;exitY=0.5;exitDx=0;exitDy=0;exitPerimeter=0;entryX=0;entryY=0.5;entryDx=0;entryDy=0;" parent="Si9Fz9xmtzH5b8jg9xg3-1" source="Si9Fz9xmtzH5b8jg9xg3-7" target="Si9Fz9xmtzH5b8jg9xg3-19" edge="1">
          <mxGeometry width="50" height="50" relative="1" as="geometry">
            <mxPoint x="350" y="635" as="sourcePoint" />
            <mxPoint x="720" y="640" as="targetPoint" />
            <Array as="points" />
          </mxGeometry>
        </mxCell>
        <mxCell id="Si9Fz9xmtzH5b8jg9xg3-15" value="&lt;font data-font-src=&quot;https://fonts.google.com/specimen/Roboto&quot; style=&quot;font-size: 20px&quot;&gt;False&lt;/font&gt;" style="edgeLabel;html=1;align=center;verticalAlign=middle;resizable=0;points=[];fontColor=#0099CC;labelBackgroundColor=none;fontFamily=consolas;" parent="Si9Fz9xmtzH5b8jg9xg3-14" vertex="1" connectable="0">
          <mxGeometry x="-0.3948" y="-1" relative="1" as="geometry">
            <mxPoint x="2" y="-16" as="offset" />
          </mxGeometry>
        </mxCell>
        <mxCell id="Si9Fz9xmtzH5b8jg9xg3-17" value="" style="endArrow=classic;html=1;fontFamily=consolas;fontSize=20;strokeWidth=3;fillColor=#a20025;strokeColor=#0099CC;entryX=0.5;entryY=0;entryDx=0;entryDy=0;exitX=0.5;exitY=1;exitDx=0;exitDy=0;entryPerimeter=0;" parent="Si9Fz9xmtzH5b8jg9xg3-1" source="Si9Fz9xmtzH5b8jg9xg3-22" target="Si9Fz9xmtzH5b8jg9xg3-24" edge="1">
          <mxGeometry width="50" height="50" relative="1" as="geometry">
            <mxPoint x="120" y="730" as="sourcePoint" />
            <mxPoint x="750" y="710" as="targetPoint" />
          </mxGeometry>
        </mxCell>
        <mxCell id="Si9Fz9xmtzH5b8jg9xg3-18" value="" style="endArrow=classic;html=1;fontFamily=consolas;fontSize=20;strokeWidth=3;fillColor=#a20025;strokeColor=#0099CC;exitX=0;exitY=0.5;exitDx=0;exitDy=0;entryX=0.5;entryY=1;entryDx=0;entryDy=0;exitPerimeter=0;" parent="Si9Fz9xmtzH5b8jg9xg3-1" source="Si9Fz9xmtzH5b8jg9xg3-24" target="Si9Fz9xmtzH5b8jg9xg3-10" edge="1">
          <mxGeometry width="50" height="50" relative="1" as="geometry">
            <mxPoint x="-44.99999999999977" y="790" as="sourcePoint" />
            <mxPoint x="750" y="710" as="targetPoint" />
            <Array as="points">
              <mxPoint x="115" y="802" />
            </Array>
          </mxGeometry>
        </mxCell>
        <mxCell id="Si9Fz9xmtzH5b8jg9xg3-19" value="Output: &lt;font&gt;A&lt;/font&gt;" style="shape=parallelogram;html=1;strokeWidth=2;perimeter=parallelogramPerimeter;whiteSpace=wrap;rounded=1;arcSize=12;size=0.23;fontSize=20;fontFamily=consolas;strokeColor=#E8C55D;fillColor=none;gradientColor=#ffd966;fontColor=#E8C55D;" parent="Si9Fz9xmtzH5b8jg9xg3-1" vertex="1">
          <mxGeometry x="490" y="568.5" width="160" height="60" as="geometry" />
        </mxCell>
        <mxCell id="Si9Fz9xmtzH5b8jg9xg3-20" value="" style="endArrow=classic;html=1;fontFamily=consolas;fontSize=20;strokeWidth=3;fillColor=#a20025;strokeColor=#FFB570;exitX=1;exitY=0.5;exitDx=0;exitDy=0;entryX=0;entryY=0.5;entryDx=0;entryDy=0;entryPerimeter=0;" parent="Si9Fz9xmtzH5b8jg9xg3-1" source="Si9Fz9xmtzH5b8jg9xg3-19" target="Si9Fz9xmtzH5b8jg9xg3-9" edge="1">
          <mxGeometry width="50" height="50" relative="1" as="geometry">
            <mxPoint x="380" y="420" as="sourcePoint" />
            <mxPoint x="770" y="600" as="targetPoint" />
          </mxGeometry>
        </mxCell>
        <mxCell id="Si9Fz9xmtzH5b8jg9xg3-21" value="Hoán vị A[j] và A[j + 1]" style="rounded=1;whiteSpace=wrap;html=1;absoluteArcSize=1;arcSize=14;strokeWidth=2;fontFamily=consolas;fontSize=20;strokeColor=#00E673;fontColor=#00E673;fillColor=none;" parent="Si9Fz9xmtzH5b8jg9xg3-1" vertex="1">
          <mxGeometry x="190" y="970" width="300" height="60" as="geometry" />
        </mxCell>
        <mxCell id="Si9Fz9xmtzH5b8jg9xg3-22" value="j = 0" style="rounded=1;whiteSpace=wrap;html=1;absoluteArcSize=1;arcSize=14;strokeWidth=2;fontFamily=consolas;fontSize=20;strokeColor=#0099CC;fontColor=#1BA1E2;fillColor=none;" parent="Si9Fz9xmtzH5b8jg9xg3-1" vertex="1">
          <mxGeometry x="260" y="670" width="160" height="58" as="geometry" />
        </mxCell>
        <mxCell id="Si9Fz9xmtzH5b8jg9xg3-24" value="j &amp;lt; n - 1 - i" style="strokeWidth=2;html=1;shape=mxgraph.flowchart.decision;whiteSpace=wrap;fontFamily=consolas;fontSize=20;strokeColor=#00E673;fontColor=#00E673;fillColor=none;" parent="Si9Fz9xmtzH5b8jg9xg3-1" vertex="1">
          <mxGeometry x="200" y="770" width="280" height="63" as="geometry" />
        </mxCell>
        <mxCell id="Si9Fz9xmtzH5b8jg9xg3-25" value="A[j] &amp;gt; A[j + 1]" style="strokeWidth=2;html=1;shape=mxgraph.flowchart.decision;whiteSpace=wrap;fontFamily=consolas;fontSize=20;strokeColor=#00E673;fontColor=#00E673;fillColor=none;" parent="Si9Fz9xmtzH5b8jg9xg3-1" vertex="1">
          <mxGeometry x="200" y="870" width="280" height="63" as="geometry" />
        </mxCell>
        <mxCell id="Si9Fz9xmtzH5b8jg9xg3-27" value="" style="endArrow=classic;html=1;fontFamily=consolas;fontSize=20;strokeWidth=3;fillColor=#a20025;strokeColor=#00E673;entryX=0.5;entryY=0;entryDx=0;entryDy=0;entryPerimeter=0;" parent="Si9Fz9xmtzH5b8jg9xg3-1" source="Si9Fz9xmtzH5b8jg9xg3-24" target="Si9Fz9xmtzH5b8jg9xg3-25" edge="1">
          <mxGeometry width="50" height="50" relative="1" as="geometry">
            <mxPoint x="490" y="880" as="sourcePoint" />
            <mxPoint x="560" y="900" as="targetPoint" />
          </mxGeometry>
        </mxCell>
        <mxCell id="Si9Fz9xmtzH5b8jg9xg3-31" value="True" style="edgeLabel;html=1;align=center;verticalAlign=middle;resizable=0;points=[];fontFamily=consolas;fontSize=20;fontColor=#00E673;labelBackgroundColor=none;" parent="Si9Fz9xmtzH5b8jg9xg3-1" vertex="1" connectable="0">
          <mxGeometry x="369.99990606410006" y="850.0017532594911" as="geometry">
            <mxPoint x="-1" y="-2" as="offset" />
          </mxGeometry>
        </mxCell>
        <mxCell id="Si9Fz9xmtzH5b8jg9xg3-33" value="" style="endArrow=classic;html=1;fontFamily=consolas;fontSize=20;strokeWidth=3;fillColor=#a20025;strokeColor=#00E673;exitX=1;exitY=0.5;exitDx=0;exitDy=0;exitPerimeter=0;entryX=0;entryY=0.5;entryDx=0;entryDy=0;" parent="Si9Fz9xmtzH5b8jg9xg3-1" source="Si9Fz9xmtzH5b8jg9xg3-25" target="Si9Fz9xmtzH5b8jg9xg3-34" edge="1">
          <mxGeometry width="50" height="50" relative="1" as="geometry">
            <mxPoint x="509.9999999999998" y="891.5" as="sourcePoint" />
            <mxPoint x="570" y="902" as="targetPoint" />
          </mxGeometry>
        </mxCell>
        <mxCell id="Si9Fz9xmtzH5b8jg9xg3-34" value="j = j + 1" style="rounded=1;whiteSpace=wrap;html=1;absoluteArcSize=1;arcSize=14;strokeWidth=2;fontFamily=consolas;fontSize=20;strokeColor=#00E673;fontColor=#00E673;fillColor=none;" parent="Si9Fz9xmtzH5b8jg9xg3-1" vertex="1">
          <mxGeometry x="570" y="871.5" width="140" height="60" as="geometry" />
        </mxCell>
        <mxCell id="Si9Fz9xmtzH5b8jg9xg3-35" value="False" style="edgeLabel;html=1;align=center;verticalAlign=middle;resizable=0;points=[];fontFamily=consolas;fontSize=20;fontColor=#00E673;labelBackgroundColor=none;" parent="Si9Fz9xmtzH5b8jg9xg3-1" vertex="1" connectable="0">
          <mxGeometry x="529.9999060641001" y="880.0017532594911" as="geometry">
            <mxPoint x="-4" y="5" as="offset" />
          </mxGeometry>
        </mxCell>
        <mxCell id="Si9Fz9xmtzH5b8jg9xg3-36" value="" style="endArrow=classic;html=1;fontFamily=consolas;fontSize=20;strokeWidth=3;fillColor=#a20025;strokeColor=#00E673;exitX=0.5;exitY=0;exitDx=0;exitDy=0;" parent="Si9Fz9xmtzH5b8jg9xg3-1" source="Si9Fz9xmtzH5b8jg9xg3-34" edge="1">
          <mxGeometry width="50" height="50" relative="1" as="geometry">
            <mxPoint x="350" y="738" as="sourcePoint" />
            <mxPoint x="340" y="740" as="targetPoint" />
            <Array as="points">
              <mxPoint x="640" y="740" />
            </Array>
          </mxGeometry>
        </mxCell>
        <mxCell id="Si9Fz9xmtzH5b8jg9xg3-38" value="False" style="edgeLabel;html=1;align=center;verticalAlign=middle;resizable=0;points=[];fontFamily=consolas;fontSize=20;fontColor=#0099CC;labelBackgroundColor=none;" parent="Si9Fz9xmtzH5b8jg9xg3-1" vertex="1" connectable="0">
          <mxGeometry x="159.99990606410006" y="780.0017532594911" as="geometry">
            <mxPoint x="4" y="5" as="offset" />
          </mxGeometry>
        </mxCell>
        <mxCell id="Si9Fz9xmtzH5b8jg9xg3-39" value="" style="endArrow=classic;html=1;fontFamily=consolas;fontSize=20;strokeWidth=3;fillColor=#a20025;strokeColor=#00E673;exitX=1;exitY=0.5;exitDx=0;exitDy=0;entryX=0.5;entryY=1;entryDx=0;entryDy=0;" parent="Si9Fz9xmtzH5b8jg9xg3-1" source="Si9Fz9xmtzH5b8jg9xg3-21" target="Si9Fz9xmtzH5b8jg9xg3-34" edge="1">
          <mxGeometry width="50" height="50" relative="1" as="geometry">
            <mxPoint x="509.9999999999998" y="1000" as="sourcePoint" />
            <mxPoint x="350" y="730" as="targetPoint" />
            <Array as="points">
              <mxPoint x="640" y="1000" />
            </Array>
          </mxGeometry>
        </mxCell>
        <mxCell id="tXntZHOPzSqJm7VpfHuU-0" value="True" style="endArrow=classic;html=1;fontFamily=consolas;fontSize=20;strokeWidth=3;fillColor=#a20025;strokeColor=#00E673;entryX=0.5;entryY=0;entryDx=0;entryDy=0;exitX=0.5;exitY=1;exitDx=0;exitDy=0;exitPerimeter=0;fontColor=#00E673;labelBackgroundColor=none;" parent="Si9Fz9xmtzH5b8jg9xg3-1" source="Si9Fz9xmtzH5b8jg9xg3-25" target="Si9Fz9xmtzH5b8jg9xg3-21" edge="1">
          <mxGeometry x="-0.0811" y="30" width="50" height="50" relative="1" as="geometry">
            <mxPoint x="350" y="843" as="sourcePoint" />
            <mxPoint x="350" y="880" as="targetPoint" />
            <mxPoint as="offset" />
          </mxGeometry>
        </mxCell>
      </root>
    </mxGraphModel>
  </diagram>
  <diagram name="Bubble sort illustration" id="vk-qmYPrvosiWTtlsxl4">
    <mxGraphModel dx="1420" dy="992" grid="1" gridSize="10" guides="1" tooltips="1" connect="1" arrows="1" fold="1" page="1" pageScale="1" pageWidth="850" pageHeight="1100" math="0" shadow="0">
      <root>
        <mxCell id="NCVz-LE7VB5XE6TOBJBZ-0" />
        <mxCell id="NCVz-LE7VB5XE6TOBJBZ-1" parent="NCVz-LE7VB5XE6TOBJBZ-0" />
        <mxCell id="NCVz-LE7VB5XE6TOBJBZ-2" value="" style="rounded=1;whiteSpace=wrap;html=1;strokeWidth=2;fillColor=#00E673;strokeColor=none;" parent="NCVz-LE7VB5XE6TOBJBZ-1" vertex="1">
          <mxGeometry x="160" y="510" width="20" height="50" as="geometry" />
        </mxCell>
        <mxCell id="NCVz-LE7VB5XE6TOBJBZ-6" value="" style="rounded=1;whiteSpace=wrap;html=1;strokeWidth=2;fillColor=none;strokeColor=#0099CC;" parent="NCVz-LE7VB5XE6TOBJBZ-1" vertex="1">
          <mxGeometry x="130" y="510" width="20" height="50" as="geometry" />
        </mxCell>
        <mxCell id="NCVz-LE7VB5XE6TOBJBZ-7" value="" style="rounded=1;whiteSpace=wrap;html=1;strokeWidth=2;fillColor=none;strokeColor=#0099CC;" parent="NCVz-LE7VB5XE6TOBJBZ-1" vertex="1">
          <mxGeometry x="100" y="540" width="20" height="20" as="geometry" />
        </mxCell>
        <mxCell id="NCVz-LE7VB5XE6TOBJBZ-8" value="" style="rounded=1;whiteSpace=wrap;html=1;strokeWidth=2;fillColor=none;strokeColor=#0099CC;" parent="NCVz-LE7VB5XE6TOBJBZ-1" vertex="1">
          <mxGeometry x="70" y="520" width="20" height="40" as="geometry" />
        </mxCell>
        <mxCell id="NCVz-LE7VB5XE6TOBJBZ-18" value="" style="rounded=1;whiteSpace=wrap;html=1;strokeWidth=2;fillColor=#00E673;strokeColor=none;" parent="NCVz-LE7VB5XE6TOBJBZ-1" vertex="1">
          <mxGeometry x="190" y="520" width="20" height="40" as="geometry" />
        </mxCell>
        <mxCell id="NCVz-LE7VB5XE6TOBJBZ-28" value="" style="rounded=1;whiteSpace=wrap;html=1;strokeWidth=2;fillColor=#FF8433;strokeColor=none;fontFamily=Segoe UI Variable Display;fontSize=16;" parent="NCVz-LE7VB5XE6TOBJBZ-1" vertex="1">
          <mxGeometry x="220" y="530" width="20" height="30" as="geometry" />
        </mxCell>
        <mxCell id="NCVz-LE7VB5XE6TOBJBZ-30" value="" style="rounded=1;whiteSpace=wrap;html=1;strokeWidth=2;fillColor=none;strokeColor=#0099CC;" parent="NCVz-LE7VB5XE6TOBJBZ-1" vertex="1">
          <mxGeometry x="100" y="640" width="20" height="20" as="geometry" />
        </mxCell>
        <mxCell id="NCVz-LE7VB5XE6TOBJBZ-31" value="" style="rounded=1;whiteSpace=wrap;html=1;strokeWidth=2;fillColor=none;strokeColor=#0099CC;" parent="NCVz-LE7VB5XE6TOBJBZ-1" vertex="1">
          <mxGeometry x="70" y="620" width="20" height="40" as="geometry" />
        </mxCell>
        <mxCell id="NCVz-LE7VB5XE6TOBJBZ-36" value="" style="rounded=1;whiteSpace=wrap;html=1;strokeWidth=2;fillColor=none;strokeColor=#0099CC;" parent="NCVz-LE7VB5XE6TOBJBZ-1" vertex="1">
          <mxGeometry x="160" y="620" width="20" height="40" as="geometry" />
        </mxCell>
        <mxCell id="NCVz-LE7VB5XE6TOBJBZ-37" value="" style="rounded=1;whiteSpace=wrap;html=1;strokeWidth=2;fillColor=#00E673;strokeColor=none;fontFamily=Segoe UI Variable Display;fontSize=16;" parent="NCVz-LE7VB5XE6TOBJBZ-1" vertex="1">
          <mxGeometry x="220" y="630" width="20" height="30" as="geometry" />
        </mxCell>
        <mxCell id="NCVz-LE7VB5XE6TOBJBZ-39" value="" style="rounded=1;whiteSpace=wrap;html=1;strokeWidth=2;fillColor=none;strokeColor=#0099CC;" parent="NCVz-LE7VB5XE6TOBJBZ-1" vertex="1">
          <mxGeometry x="100" y="740" width="20" height="20" as="geometry" />
        </mxCell>
        <mxCell id="NCVz-LE7VB5XE6TOBJBZ-41" value="" style="rounded=1;whiteSpace=wrap;html=1;strokeWidth=2;fillColor=none;strokeColor=#0099CC;" parent="NCVz-LE7VB5XE6TOBJBZ-1" vertex="1">
          <mxGeometry x="70" y="720" width="20" height="40" as="geometry" />
        </mxCell>
        <mxCell id="NCVz-LE7VB5XE6TOBJBZ-55" value="" style="edgeStyle=segmentEdgeStyle;endArrow=blockThin;html=1;rounded=1;strokeWidth=3;strokeColor=#00E673;startArrow=blockThin;startFill=1;endFill=1;entryX=0.5;entryY=1;entryDx=0;entryDy=0;exitX=0.5;exitY=1;exitDx=0;exitDy=0;" parent="NCVz-LE7VB5XE6TOBJBZ-1" source="NCVz-LE7VB5XE6TOBJBZ-18" target="NCVz-LE7VB5XE6TOBJBZ-2" edge="1">
          <mxGeometry width="50" height="50" relative="1" as="geometry">
            <mxPoint x="300" y="580" as="sourcePoint" />
            <mxPoint x="180" y="570" as="targetPoint" />
            <Array as="points">
              <mxPoint x="200" y="580" />
              <mxPoint x="170" y="580" />
            </Array>
          </mxGeometry>
        </mxCell>
        <mxCell id="NCVz-LE7VB5XE6TOBJBZ-56" value="" style="rounded=1;whiteSpace=wrap;html=1;strokeWidth=2;fillColor=none;strokeColor=#0099CC;" parent="NCVz-LE7VB5XE6TOBJBZ-1" vertex="1">
          <mxGeometry x="130" y="610" width="20" height="50" as="geometry" />
        </mxCell>
        <mxCell id="NCVz-LE7VB5XE6TOBJBZ-57" value="" style="rounded=1;whiteSpace=wrap;html=1;strokeWidth=2;fillColor=none;strokeColor=#0099CC;" parent="NCVz-LE7VB5XE6TOBJBZ-1" vertex="1">
          <mxGeometry x="130" y="710" width="20" height="50" as="geometry" />
        </mxCell>
        <mxCell id="NCVz-LE7VB5XE6TOBJBZ-59" value="" style="rounded=1;whiteSpace=wrap;html=1;strokeWidth=2;fillColor=#00E673;strokeColor=none;" parent="NCVz-LE7VB5XE6TOBJBZ-1" vertex="1">
          <mxGeometry x="190" y="610" width="20" height="50" as="geometry" />
        </mxCell>
        <mxCell id="NCVz-LE7VB5XE6TOBJBZ-60" value="" style="edgeStyle=segmentEdgeStyle;endArrow=blockThin;html=1;rounded=1;strokeWidth=3;strokeColor=#00E673;startArrow=blockThin;startFill=1;endFill=1;exitX=0.527;exitY=1.053;exitDx=0;exitDy=0;exitPerimeter=0;entryX=0.5;entryY=1;entryDx=0;entryDy=0;" parent="NCVz-LE7VB5XE6TOBJBZ-1" source="NCVz-LE7VB5XE6TOBJBZ-37" target="NCVz-LE7VB5XE6TOBJBZ-59" edge="1">
          <mxGeometry width="50" height="50" relative="1" as="geometry">
            <mxPoint x="250" y="670" as="sourcePoint" />
            <mxPoint x="180" y="670" as="targetPoint" />
            <Array as="points">
              <mxPoint x="231" y="680" />
              <mxPoint x="200" y="680" />
            </Array>
          </mxGeometry>
        </mxCell>
        <mxCell id="NCVz-LE7VB5XE6TOBJBZ-61" value="" style="rounded=1;whiteSpace=wrap;html=1;strokeWidth=2;fillColor=#00E673;strokeColor=none;" parent="NCVz-LE7VB5XE6TOBJBZ-1" vertex="1">
          <mxGeometry x="220" y="710" width="20" height="50" as="geometry" />
        </mxCell>
        <mxCell id="NCVz-LE7VB5XE6TOBJBZ-62" value="" style="rounded=1;whiteSpace=wrap;html=1;strokeWidth=2;fillColor=none;strokeColor=#0099CC;" parent="NCVz-LE7VB5XE6TOBJBZ-1" vertex="1">
          <mxGeometry x="160" y="720" width="20" height="40" as="geometry" />
        </mxCell>
        <mxCell id="NCVz-LE7VB5XE6TOBJBZ-63" value="" style="rounded=1;whiteSpace=wrap;html=1;strokeWidth=2;fillColor=none;strokeColor=#0099CC;fontFamily=Segoe UI Variable Display;fontSize=16;" parent="NCVz-LE7VB5XE6TOBJBZ-1" vertex="1">
          <mxGeometry x="190" y="730" width="20" height="30" as="geometry" />
        </mxCell>
        <mxCell id="xEqwPxFadEmCeUfuGRNX-0" value="" style="rounded=1;whiteSpace=wrap;html=1;strokeWidth=2;fillColor=#FFCC3B;strokeColor=none;" parent="NCVz-LE7VB5XE6TOBJBZ-1" vertex="1">
          <mxGeometry x="280" y="490" width="20" height="70" as="geometry" />
        </mxCell>
        <mxCell id="xEqwPxFadEmCeUfuGRNX-1" value="" style="rounded=1;whiteSpace=wrap;html=1;strokeWidth=2;fillColor=#FFCC3B;strokeColor=none;" parent="NCVz-LE7VB5XE6TOBJBZ-1" vertex="1">
          <mxGeometry x="250" y="500" width="20" height="60" as="geometry" />
        </mxCell>
        <mxCell id="xEqwPxFadEmCeUfuGRNX-3" value="" style="rounded=1;whiteSpace=wrap;html=1;strokeWidth=2;fillColor=#FFCC3B;strokeColor=none;fontFamily=Segoe UI Variable Display;fontSize=16;" parent="NCVz-LE7VB5XE6TOBJBZ-1" vertex="1">
          <mxGeometry x="310" y="480" width="20" height="80" as="geometry" />
        </mxCell>
        <mxCell id="xEqwPxFadEmCeUfuGRNX-4" value="" style="rounded=1;whiteSpace=wrap;html=1;strokeWidth=2;fillColor=#FFCC3B;strokeColor=none;" parent="NCVz-LE7VB5XE6TOBJBZ-1" vertex="1">
          <mxGeometry x="280" y="590" width="20" height="70" as="geometry" />
        </mxCell>
        <mxCell id="xEqwPxFadEmCeUfuGRNX-5" value="" style="rounded=1;whiteSpace=wrap;html=1;strokeWidth=2;fillColor=#FFCC3B;strokeColor=none;" parent="NCVz-LE7VB5XE6TOBJBZ-1" vertex="1">
          <mxGeometry x="250" y="600" width="20" height="60" as="geometry" />
        </mxCell>
        <mxCell id="xEqwPxFadEmCeUfuGRNX-6" value="" style="rounded=1;whiteSpace=wrap;html=1;strokeWidth=2;fillColor=#FFCC3B;strokeColor=none;fontFamily=Segoe UI Variable Display;fontSize=16;" parent="NCVz-LE7VB5XE6TOBJBZ-1" vertex="1">
          <mxGeometry x="310" y="580" width="20" height="80" as="geometry" />
        </mxCell>
        <mxCell id="xEqwPxFadEmCeUfuGRNX-7" value="" style="rounded=1;whiteSpace=wrap;html=1;strokeWidth=2;fillColor=#FFCC3B;strokeColor=none;" parent="NCVz-LE7VB5XE6TOBJBZ-1" vertex="1">
          <mxGeometry x="280" y="690" width="20" height="70" as="geometry" />
        </mxCell>
        <mxCell id="xEqwPxFadEmCeUfuGRNX-8" value="" style="rounded=1;whiteSpace=wrap;html=1;strokeWidth=2;fillColor=#FFCC3B;strokeColor=none;" parent="NCVz-LE7VB5XE6TOBJBZ-1" vertex="1">
          <mxGeometry x="250" y="700" width="20" height="60" as="geometry" />
        </mxCell>
        <mxCell id="xEqwPxFadEmCeUfuGRNX-9" value="" style="rounded=1;whiteSpace=wrap;html=1;strokeWidth=2;fillColor=#FFCC3B;strokeColor=none;fontFamily=Segoe UI Variable Display;fontSize=16;" parent="NCVz-LE7VB5XE6TOBJBZ-1" vertex="1">
          <mxGeometry x="310" y="680" width="20" height="80" as="geometry" />
        </mxCell>
        <mxCell id="JlR-hIjnGxOm1_LOdKAd-0" value="" style="shape=curlyBracket;whiteSpace=wrap;html=1;rounded=1;strokeColor=#FFCC3B;fillColor=none;rotation=-90;" parent="NCVz-LE7VB5XE6TOBJBZ-1" vertex="1">
          <mxGeometry x="265.94" y="714.06" width="20" height="120" as="geometry" />
        </mxCell>
        <mxCell id="JlR-hIjnGxOm1_LOdKAd-1" value="" style="shape=curlyBracket;whiteSpace=wrap;html=1;rounded=1;strokeColor=#0099CC;fillColor=none;rotation=-90;" parent="NCVz-LE7VB5XE6TOBJBZ-1" vertex="1">
          <mxGeometry x="127.66" y="699.0600000000001" width="20" height="150" as="geometry" />
        </mxCell>
        <mxCell id="JlR-hIjnGxOm1_LOdKAd-2" value="&lt;font&gt;already sorted&lt;/font&gt;" style="text;html=1;strokeColor=none;fillColor=none;align=center;verticalAlign=middle;whiteSpace=wrap;rounded=0;fontFamily=Segoe UI Variable Display;fontSize=16;fontColor=#FFCC3B;" parent="NCVz-LE7VB5XE6TOBJBZ-1" vertex="1">
          <mxGeometry x="215.94" y="780.0000000000001" width="120" height="20" as="geometry" />
        </mxCell>
        <mxCell id="JlR-hIjnGxOm1_LOdKAd-3" value="&lt;font&gt;not yet sorted&lt;/font&gt;" style="text;html=1;strokeColor=none;fillColor=none;align=center;verticalAlign=middle;whiteSpace=wrap;rounded=0;fontFamily=Segoe UI Variable Display;fontSize=16;fontColor=#0099CC;" parent="NCVz-LE7VB5XE6TOBJBZ-1" vertex="1">
          <mxGeometry x="60.16" y="780" width="155" height="20" as="geometry" />
        </mxCell>
      </root>
    </mxGraphModel>
  </diagram>
  <diagram name="exchange sort flowchart" id="pyEeFHrmHRZQs_tYzwyN">
    <mxGraphModel dx="1420" dy="992" grid="1" gridSize="10" guides="1" tooltips="1" connect="1" arrows="1" fold="1" page="1" pageScale="1" pageWidth="827" pageHeight="1169" math="0" shadow="0">
      <root>
        <mxCell id="2CCnmLPEaWtVLP5Bdb9r-0" />
        <mxCell id="2CCnmLPEaWtVLP5Bdb9r-1" parent="2CCnmLPEaWtVLP5Bdb9r-0" />
        <mxCell id="2CCnmLPEaWtVLP5Bdb9r-4" value="i = 0" style="rounded=1;whiteSpace=wrap;html=1;absoluteArcSize=1;arcSize=14;strokeWidth=2;fontFamily=consolas;fontSize=20;strokeColor=#FF8433;fontColor=#FF8433;fillColor=none;" parent="2CCnmLPEaWtVLP5Bdb9r-1" vertex="1">
          <mxGeometry x="260" y="460" width="160" height="60" as="geometry" />
        </mxCell>
        <mxCell id="2CCnmLPEaWtVLP5Bdb9r-7" value="i &amp;lt; n - 1" style="strokeWidth=2;html=1;shape=mxgraph.flowchart.decision;whiteSpace=wrap;fontFamily=consolas;fontSize=20;strokeColor=#FF8433;fontColor=#FF8433;fillColor=none;" parent="2CCnmLPEaWtVLP5Bdb9r-1" vertex="1">
          <mxGeometry x="250" y="557" width="180" height="63" as="geometry" />
        </mxCell>
        <mxCell id="2CCnmLPEaWtVLP5Bdb9r-8" value="" style="endArrow=classic;html=1;fontFamily=consolas;fontSize=20;strokeWidth=3;fillColor=#a20025;strokeColor=#FF8433;exitX=0.5;exitY=1;exitDx=0;exitDy=0;entryX=0.5;entryY=0;entryDx=0;entryDy=0;entryPerimeter=0;" parent="2CCnmLPEaWtVLP5Bdb9r-1" source="2CCnmLPEaWtVLP5Bdb9r-4" target="2CCnmLPEaWtVLP5Bdb9r-7" edge="1">
          <mxGeometry width="50" height="50" relative="1" as="geometry">
            <mxPoint x="339.5" y="625" as="sourcePoint" />
            <mxPoint x="339.5" y="685" as="targetPoint" />
          </mxGeometry>
        </mxCell>
        <mxCell id="2CCnmLPEaWtVLP5Bdb9r-10" value="i = i + 1" style="rounded=1;whiteSpace=wrap;html=1;absoluteArcSize=1;arcSize=14;strokeWidth=2;fontFamily=consolas;fontSize=20;strokeColor=#FF8433;fontColor=#FF8433;fillColor=none;" parent="2CCnmLPEaWtVLP5Bdb9r-1" vertex="1">
          <mxGeometry x="40" y="670" width="150" height="58" as="geometry" />
        </mxCell>
        <mxCell id="2CCnmLPEaWtVLP5Bdb9r-11" value="" style="endArrow=classic;html=1;fontFamily=consolas;fontSize=20;strokeWidth=3;fillColor=#a20025;strokeColor=#FF8433;exitX=0.5;exitY=0;exitDx=0;exitDy=0;" parent="2CCnmLPEaWtVLP5Bdb9r-1" source="2CCnmLPEaWtVLP5Bdb9r-10" edge="1">
          <mxGeometry width="50" height="50" relative="1" as="geometry">
            <mxPoint x="125" y="550" as="sourcePoint" />
            <mxPoint x="340" y="530" as="targetPoint" />
            <Array as="points">
              <mxPoint x="115" y="530" />
            </Array>
          </mxGeometry>
        </mxCell>
        <mxCell id="2CCnmLPEaWtVLP5Bdb9r-12" value="" style="endArrow=classic;html=1;fontFamily=consolas;fontSize=20;strokeWidth=3;fillColor=#a20025;strokeColor=#FF8433;exitX=0.5;exitY=1;exitDx=0;exitDy=0;entryX=0.5;entryY=0;entryDx=0;entryDy=0;exitPerimeter=0;" parent="2CCnmLPEaWtVLP5Bdb9r-1" source="2CCnmLPEaWtVLP5Bdb9r-7" target="2CCnmLPEaWtVLP5Bdb9r-21" edge="1">
          <mxGeometry width="50" height="50" relative="1" as="geometry">
            <mxPoint x="350" y="510" as="sourcePoint" />
            <mxPoint x="340" y="670" as="targetPoint" />
          </mxGeometry>
        </mxCell>
        <mxCell id="2CCnmLPEaWtVLP5Bdb9r-13" value="True" style="edgeLabel;html=1;align=center;verticalAlign=middle;resizable=0;points=[];fontFamily=consolas;fontSize=20;fontColor=#FF8433;labelBackgroundColor=none;" parent="2CCnmLPEaWtVLP5Bdb9r-1" vertex="1" connectable="0">
          <mxGeometry x="369.99990606410006" y="630.0017532594911" as="geometry" />
        </mxCell>
        <mxCell id="2CCnmLPEaWtVLP5Bdb9r-14" value="" style="endArrow=classic;html=1;fontFamily=consolas;fontSize=20;strokeWidth=3;fillColor=#a20025;strokeColor=#FF8433;exitX=1;exitY=0.5;exitDx=0;exitDy=0;exitPerimeter=0;entryX=0;entryY=0.5;entryDx=0;entryDy=0;" parent="2CCnmLPEaWtVLP5Bdb9r-1" source="2CCnmLPEaWtVLP5Bdb9r-7" target="uToUEJB3OyVK42qzegLR-1" edge="1">
          <mxGeometry width="50" height="50" relative="1" as="geometry">
            <mxPoint x="350" y="625" as="sourcePoint" />
            <mxPoint x="478.4000000000001" y="588.5" as="targetPoint" />
            <Array as="points" />
          </mxGeometry>
        </mxCell>
        <mxCell id="2CCnmLPEaWtVLP5Bdb9r-15" value="&lt;font data-font-src=&quot;https://fonts.google.com/specimen/Roboto&quot; style=&quot;font-size: 20px&quot;&gt;False&lt;/font&gt;" style="edgeLabel;html=1;align=center;verticalAlign=middle;resizable=0;points=[];fontColor=#FF8433;labelBackgroundColor=none;fontFamily=consolas;" parent="2CCnmLPEaWtVLP5Bdb9r-14" vertex="1" connectable="0">
          <mxGeometry x="-0.3948" y="-1" relative="1" as="geometry">
            <mxPoint x="6" y="-16" as="offset" />
          </mxGeometry>
        </mxCell>
        <mxCell id="2CCnmLPEaWtVLP5Bdb9r-16" value="" style="endArrow=classic;html=1;fontFamily=consolas;fontSize=20;strokeWidth=3;fillColor=#a20025;strokeColor=#00E673;entryX=0.5;entryY=0;entryDx=0;entryDy=0;exitX=0.5;exitY=1;exitDx=0;exitDy=0;entryPerimeter=0;" parent="2CCnmLPEaWtVLP5Bdb9r-1" source="2CCnmLPEaWtVLP5Bdb9r-21" target="2CCnmLPEaWtVLP5Bdb9r-23" edge="1">
          <mxGeometry width="50" height="50" relative="1" as="geometry">
            <mxPoint x="120" y="720" as="sourcePoint" />
            <mxPoint x="750" y="700" as="targetPoint" />
          </mxGeometry>
        </mxCell>
        <mxCell id="2CCnmLPEaWtVLP5Bdb9r-17" value="False" style="endArrow=classic;html=1;fontFamily=consolas;fontSize=20;strokeWidth=3;fillColor=#a20025;strokeColor=#FF8433;exitX=0;exitY=0.5;exitDx=0;exitDy=0;entryX=0.5;entryY=1;entryDx=0;entryDy=0;exitPerimeter=0;labelBackgroundColor=none;fontColor=#FF8433;" parent="2CCnmLPEaWtVLP5Bdb9r-1" source="2CCnmLPEaWtVLP5Bdb9r-23" target="2CCnmLPEaWtVLP5Bdb9r-10" edge="1">
          <mxGeometry x="-0.4977" y="-12" width="50" height="50" relative="1" as="geometry">
            <mxPoint x="-44.99999999999977" y="790" as="sourcePoint" />
            <mxPoint x="750" y="710" as="targetPoint" />
            <Array as="points">
              <mxPoint x="115" y="792" />
            </Array>
            <mxPoint as="offset" />
          </mxGeometry>
        </mxCell>
        <mxCell id="2CCnmLPEaWtVLP5Bdb9r-20" value="Hoán vị A[i] và A[j]" style="rounded=1;whiteSpace=wrap;html=1;absoluteArcSize=1;arcSize=14;strokeWidth=2;fontFamily=consolas;fontSize=20;strokeColor=#00E673;fontColor=#00E673;fillColor=none;" parent="2CCnmLPEaWtVLP5Bdb9r-1" vertex="1">
          <mxGeometry x="210" y="980" width="260" height="60" as="geometry" />
        </mxCell>
        <mxCell id="2CCnmLPEaWtVLP5Bdb9r-21" value="j = i + 1" style="rounded=1;whiteSpace=wrap;html=1;absoluteArcSize=1;arcSize=14;strokeWidth=2;fontFamily=consolas;fontSize=20;strokeColor=#00E673;fontColor=#00E673;fillColor=none;" parent="2CCnmLPEaWtVLP5Bdb9r-1" vertex="1">
          <mxGeometry x="235" y="660" width="210" height="58" as="geometry" />
        </mxCell>
        <mxCell id="2CCnmLPEaWtVLP5Bdb9r-22" value="" style="endArrow=classic;html=1;fontFamily=consolas;fontSize=20;strokeWidth=3;fillColor=#a20025;strokeColor=#00E673;entryX=0.5;entryY=0;entryDx=0;entryDy=0;exitX=0.5;exitY=1;exitDx=0;exitDy=0;exitPerimeter=0;" parent="2CCnmLPEaWtVLP5Bdb9r-1" source="2CCnmLPEaWtVLP5Bdb9r-24" target="2CCnmLPEaWtVLP5Bdb9r-20" edge="1">
          <mxGeometry width="50" height="50" relative="1" as="geometry">
            <mxPoint x="350" y="718" as="sourcePoint" />
            <mxPoint x="350" y="770" as="targetPoint" />
          </mxGeometry>
        </mxCell>
        <mxCell id="2CCnmLPEaWtVLP5Bdb9r-23" value="j &amp;lt; n" style="strokeWidth=2;html=1;shape=mxgraph.flowchart.decision;whiteSpace=wrap;fontFamily=consolas;fontSize=20;strokeColor=#00E673;fontColor=#00E673;fillColor=none;" parent="2CCnmLPEaWtVLP5Bdb9r-1" vertex="1">
          <mxGeometry x="210" y="760" width="260" height="63" as="geometry" />
        </mxCell>
        <mxCell id="2CCnmLPEaWtVLP5Bdb9r-24" value="A[i] &amp;gt; A[j]" style="strokeWidth=2;html=1;shape=mxgraph.flowchart.decision;whiteSpace=wrap;fontFamily=consolas;fontSize=20;strokeColor=#00E673;fontColor=#00E673;fillColor=none;" parent="2CCnmLPEaWtVLP5Bdb9r-1" vertex="1">
          <mxGeometry x="210" y="870" width="260" height="63" as="geometry" />
        </mxCell>
        <mxCell id="2CCnmLPEaWtVLP5Bdb9r-25" value="" style="endArrow=classic;html=1;fontFamily=consolas;fontSize=20;strokeWidth=3;fillColor=#a20025;strokeColor=#00E673;entryX=0.5;entryY=0;entryDx=0;entryDy=0;entryPerimeter=0;" parent="2CCnmLPEaWtVLP5Bdb9r-1" source="2CCnmLPEaWtVLP5Bdb9r-23" target="2CCnmLPEaWtVLP5Bdb9r-24" edge="1">
          <mxGeometry width="50" height="50" relative="1" as="geometry">
            <mxPoint x="490" y="870" as="sourcePoint" />
            <mxPoint x="560" y="890" as="targetPoint" />
          </mxGeometry>
        </mxCell>
        <mxCell id="2CCnmLPEaWtVLP5Bdb9r-26" value="True" style="edgeLabel;html=1;align=center;verticalAlign=middle;resizable=0;points=[];fontFamily=consolas;fontSize=20;fontColor=#00E673;labelBackgroundColor=none;" parent="2CCnmLPEaWtVLP5Bdb9r-1" vertex="1" connectable="0">
          <mxGeometry x="369.99990606410006" y="840.0017532594911" as="geometry" />
        </mxCell>
        <mxCell id="2CCnmLPEaWtVLP5Bdb9r-27" value="True" style="edgeLabel;html=1;align=center;verticalAlign=middle;resizable=0;points=[];fontFamily=consolas;fontSize=20;fontColor=#00E673;labelBackgroundColor=none;" parent="2CCnmLPEaWtVLP5Bdb9r-1" vertex="1" connectable="0">
          <mxGeometry x="369.99990606410006" y="950.0017532594911" as="geometry" />
        </mxCell>
        <mxCell id="2CCnmLPEaWtVLP5Bdb9r-28" value="False" style="endArrow=classic;html=1;fontFamily=consolas;fontSize=20;strokeWidth=3;fillColor=#a20025;strokeColor=#00E673;exitX=1;exitY=0.5;exitDx=0;exitDy=0;exitPerimeter=0;entryX=0;entryY=0.5;entryDx=0;entryDy=0;fontColor=#00E673;labelBackgroundColor=none;" parent="2CCnmLPEaWtVLP5Bdb9r-1" source="2CCnmLPEaWtVLP5Bdb9r-24" target="2CCnmLPEaWtVLP5Bdb9r-29" edge="1">
          <mxGeometry x="0.1111" y="12" width="50" height="50" relative="1" as="geometry">
            <mxPoint x="520" y="880" as="sourcePoint" />
            <mxPoint x="570" y="902" as="targetPoint" />
            <mxPoint as="offset" />
          </mxGeometry>
        </mxCell>
        <mxCell id="2CCnmLPEaWtVLP5Bdb9r-29" value="j = j + 1" style="rounded=1;whiteSpace=wrap;html=1;absoluteArcSize=1;arcSize=14;strokeWidth=2;fontFamily=consolas;fontSize=20;strokeColor=#00E673;fontColor=#00E673;fillColor=none;" parent="2CCnmLPEaWtVLP5Bdb9r-1" vertex="1">
          <mxGeometry x="570" y="871.5" width="120" height="60" as="geometry" />
        </mxCell>
        <mxCell id="2CCnmLPEaWtVLP5Bdb9r-31" value="" style="endArrow=classic;html=1;fontFamily=consolas;fontSize=20;strokeWidth=3;fillColor=#a20025;strokeColor=#00E673;exitX=0.5;exitY=0;exitDx=0;exitDy=0;" parent="2CCnmLPEaWtVLP5Bdb9r-1" source="2CCnmLPEaWtVLP5Bdb9r-29" edge="1">
          <mxGeometry width="50" height="50" relative="1" as="geometry">
            <mxPoint x="350" y="728" as="sourcePoint" />
            <mxPoint x="340" y="730" as="targetPoint" />
            <Array as="points">
              <mxPoint x="630" y="730" />
            </Array>
          </mxGeometry>
        </mxCell>
        <mxCell id="2CCnmLPEaWtVLP5Bdb9r-33" value="" style="endArrow=classic;html=1;fontFamily=consolas;fontSize=20;strokeWidth=3;fillColor=#a20025;strokeColor=#00E673;exitX=1;exitY=0.5;exitDx=0;exitDy=0;entryX=0.5;entryY=1;entryDx=0;entryDy=0;" parent="2CCnmLPEaWtVLP5Bdb9r-1" source="2CCnmLPEaWtVLP5Bdb9r-20" target="2CCnmLPEaWtVLP5Bdb9r-29" edge="1">
          <mxGeometry width="50" height="50" relative="1" as="geometry">
            <mxPoint x="640" y="881.5" as="sourcePoint" />
            <mxPoint x="350" y="730" as="targetPoint" />
            <Array as="points">
              <mxPoint x="630" y="1010" />
            </Array>
          </mxGeometry>
        </mxCell>
        <mxCell id="WnA2FWgdyJOa4QwjBkuf-0" value="Bắt đầu" style="strokeWidth=2;html=1;shape=mxgraph.flowchart.terminator;whiteSpace=wrap;fontSize=20;fontFamily=consolas;strokeColor=#00FF80;fontColor=#00FF80;fillColor=none;" vertex="1" parent="2CCnmLPEaWtVLP5Bdb9r-1">
          <mxGeometry x="280" y="260" width="120" height="60" as="geometry" />
        </mxCell>
        <mxCell id="WnA2FWgdyJOa4QwjBkuf-1" value="Input: A, n" style="shape=parallelogram;html=1;strokeWidth=2;perimeter=parallelogramPerimeter;whiteSpace=wrap;rounded=1;arcSize=12;size=0.23;fontSize=20;fontFamily=consolas;strokeColor=#0099CC;fillColor=none;gradientColor=#ffd966;fontColor=#0099CC;" vertex="1" parent="2CCnmLPEaWtVLP5Bdb9r-1">
          <mxGeometry x="240" y="360" width="200" height="60" as="geometry" />
        </mxCell>
        <mxCell id="WnA2FWgdyJOa4QwjBkuf-2" value="" style="endArrow=classic;html=1;fontFamily=consolas;fontSize=20;strokeWidth=3;fillColor=#a20025;strokeColor=#00FF80;exitX=0.5;exitY=1;exitDx=0;exitDy=0;exitPerimeter=0;entryX=0.5;entryY=0;entryDx=0;entryDy=0;fontColor=#00FF80;" edge="1" parent="2CCnmLPEaWtVLP5Bdb9r-1" source="WnA2FWgdyJOa4QwjBkuf-0" target="WnA2FWgdyJOa4QwjBkuf-1">
          <mxGeometry width="50" height="50" relative="1" as="geometry">
            <mxPoint x="560" y="610" as="sourcePoint" />
            <mxPoint x="330" y="310" as="targetPoint" />
          </mxGeometry>
        </mxCell>
        <mxCell id="WnA2FWgdyJOa4QwjBkuf-3" value="" style="endArrow=classic;html=1;fontFamily=consolas;fontSize=20;strokeWidth=3;fillColor=#a20025;strokeColor=#0099CC;exitX=0.5;exitY=1;exitDx=0;exitDy=0;entryX=0.5;entryY=0;entryDx=0;entryDy=0;" edge="1" parent="2CCnmLPEaWtVLP5Bdb9r-1" source="WnA2FWgdyJOa4QwjBkuf-1" target="2CCnmLPEaWtVLP5Bdb9r-4">
          <mxGeometry width="50" height="50" relative="1" as="geometry">
            <mxPoint x="870" y="350" as="sourcePoint" />
            <mxPoint x="660" y="400" as="targetPoint" />
          </mxGeometry>
        </mxCell>
        <mxCell id="uToUEJB3OyVK42qzegLR-0" value="Kết thúc" style="strokeWidth=2;html=1;shape=mxgraph.flowchart.terminator;whiteSpace=wrap;fontSize=20;strokeColor=#FF0000;fontColor=#FF0000;fillColor=none;fontFamily=consolas;" vertex="1" parent="2CCnmLPEaWtVLP5Bdb9r-1">
          <mxGeometry x="680" y="558.5" width="120" height="60" as="geometry" />
        </mxCell>
        <mxCell id="uToUEJB3OyVK42qzegLR-1" value="Output: &lt;font&gt;A&lt;/font&gt;" style="shape=parallelogram;html=1;strokeWidth=2;perimeter=parallelogramPerimeter;whiteSpace=wrap;rounded=1;arcSize=12;size=0.23;fontSize=20;fontFamily=consolas;strokeColor=#E8C55D;fillColor=none;gradientColor=#ffd966;fontColor=#E8C55D;" vertex="1" parent="2CCnmLPEaWtVLP5Bdb9r-1">
          <mxGeometry x="490" y="558.5" width="160" height="60" as="geometry" />
        </mxCell>
        <mxCell id="uToUEJB3OyVK42qzegLR-2" value="" style="endArrow=classic;html=1;fontFamily=consolas;fontSize=20;strokeWidth=3;fillColor=#a20025;strokeColor=#FFB570;exitX=1;exitY=0.5;exitDx=0;exitDy=0;entryX=0;entryY=0.5;entryDx=0;entryDy=0;entryPerimeter=0;" edge="1" parent="2CCnmLPEaWtVLP5Bdb9r-1" source="uToUEJB3OyVK42qzegLR-1" target="uToUEJB3OyVK42qzegLR-0">
          <mxGeometry width="50" height="50" relative="1" as="geometry">
            <mxPoint x="380" y="410" as="sourcePoint" />
            <mxPoint x="770" y="590" as="targetPoint" />
          </mxGeometry>
        </mxCell>
      </root>
    </mxGraphModel>
  </diagram>
  <diagram name="exchange sort illustration" id="DX_qCEEQOTiowvfmywFJ">
    <mxGraphModel dx="979" dy="684" grid="1" gridSize="10" guides="1" tooltips="1" connect="1" arrows="1" fold="1" page="1" pageScale="1" pageWidth="850" pageHeight="1100" math="0" shadow="0">
      <root>
        <mxCell id="3XOKU21-X05-QKLe23SN-0" />
        <mxCell id="3XOKU21-X05-QKLe23SN-1" parent="3XOKU21-X05-QKLe23SN-0" />
        <mxCell id="3XOKU21-X05-QKLe23SN-2" value="" style="rounded=1;whiteSpace=wrap;html=1;strokeWidth=2;fillColor=#FF8433;strokeColor=none;" parent="3XOKU21-X05-QKLe23SN-1" vertex="1">
          <mxGeometry x="160" y="490" width="20" height="70" as="geometry" />
        </mxCell>
        <mxCell id="3XOKU21-X05-QKLe23SN-3" value="" style="rounded=1;whiteSpace=wrap;html=1;strokeWidth=2;fillColor=#FF8433;strokeColor=none;" parent="3XOKU21-X05-QKLe23SN-1" vertex="1">
          <mxGeometry x="160" y="630" width="20" height="60" as="geometry" />
        </mxCell>
        <mxCell id="3XOKU21-X05-QKLe23SN-5" value="" style="edgeStyle=segmentEdgeStyle;endArrow=blockThin;html=1;rounded=1;strokeWidth=3;strokeColor=#FF8433;startArrow=blockThin;startFill=1;exitX=0.5;exitY=1;exitDx=0;exitDy=0;endFill=1;" parent="3XOKU21-X05-QKLe23SN-1" source="3XOKU21-X05-QKLe23SN-25" edge="1">
          <mxGeometry width="50" height="50" relative="1" as="geometry">
            <mxPoint x="230" y="560" as="sourcePoint" />
            <mxPoint x="170" y="560" as="targetPoint" />
            <Array as="points">
              <mxPoint x="200" y="590" />
              <mxPoint x="170" y="590" />
            </Array>
          </mxGeometry>
        </mxCell>
        <mxCell id="3XOKU21-X05-QKLe23SN-6" value="" style="rounded=1;whiteSpace=wrap;html=1;strokeWidth=2;fillColor=#FFCC3B;strokeColor=none;" parent="3XOKU21-X05-QKLe23SN-1" vertex="1">
          <mxGeometry x="130" y="520" width="20" height="40" as="geometry" />
        </mxCell>
        <mxCell id="3XOKU21-X05-QKLe23SN-7" value="" style="rounded=1;whiteSpace=wrap;html=1;strokeWidth=2;fillColor=#FFCC3B;strokeColor=none;" parent="3XOKU21-X05-QKLe23SN-1" vertex="1">
          <mxGeometry x="100" y="530" width="20" height="30" as="geometry" />
        </mxCell>
        <mxCell id="3XOKU21-X05-QKLe23SN-8" value="" style="rounded=1;whiteSpace=wrap;html=1;strokeWidth=2;fillColor=#FFCC3B;strokeColor=none;" parent="3XOKU21-X05-QKLe23SN-1" vertex="1">
          <mxGeometry x="70" y="540" width="20" height="20" as="geometry" />
        </mxCell>
        <mxCell id="3XOKU21-X05-QKLe23SN-10" value="" style="rounded=1;whiteSpace=wrap;html=1;strokeWidth=2;fillColor=none;strokeColor=#0099CC;gradientColor=none;" parent="3XOKU21-X05-QKLe23SN-1" vertex="1">
          <mxGeometry x="250" y="480" width="20" height="80" as="geometry" />
        </mxCell>
        <mxCell id="3XOKU21-X05-QKLe23SN-11" value="" style="rounded=1;whiteSpace=wrap;html=1;strokeWidth=2;fillColor=none;strokeColor=#0099CC;gradientColor=none;" parent="3XOKU21-X05-QKLe23SN-1" vertex="1">
          <mxGeometry x="280" y="490" width="20" height="70" as="geometry" />
        </mxCell>
        <mxCell id="3XOKU21-X05-QKLe23SN-15" value="" style="rounded=1;whiteSpace=wrap;html=1;strokeWidth=2;fillColor=#FFCC3B;strokeColor=none;" parent="3XOKU21-X05-QKLe23SN-1" vertex="1">
          <mxGeometry x="130" y="650" width="20" height="40" as="geometry" />
        </mxCell>
        <mxCell id="3XOKU21-X05-QKLe23SN-16" value="" style="rounded=1;whiteSpace=wrap;html=1;strokeWidth=2;fillColor=#FFCC3B;strokeColor=none;" parent="3XOKU21-X05-QKLe23SN-1" vertex="1">
          <mxGeometry x="100" y="660" width="20" height="30" as="geometry" />
        </mxCell>
        <mxCell id="3XOKU21-X05-QKLe23SN-17" value="" style="rounded=1;whiteSpace=wrap;html=1;strokeWidth=2;fillColor=#FFCC3B;strokeColor=none;" parent="3XOKU21-X05-QKLe23SN-1" vertex="1">
          <mxGeometry x="70" y="670" width="20" height="20" as="geometry" />
        </mxCell>
        <mxCell id="3XOKU21-X05-QKLe23SN-19" value="" style="rounded=1;whiteSpace=wrap;html=1;strokeWidth=2;fillColor=none;strokeColor=#0099CC;gradientColor=none;" parent="3XOKU21-X05-QKLe23SN-1" vertex="1">
          <mxGeometry x="250" y="610" width="20" height="80" as="geometry" />
        </mxCell>
        <mxCell id="3XOKU21-X05-QKLe23SN-20" value="" style="rounded=1;whiteSpace=wrap;html=1;strokeWidth=2;fillColor=none;strokeColor=#0099CC;gradientColor=none;" parent="3XOKU21-X05-QKLe23SN-1" vertex="1">
          <mxGeometry x="280" y="620" width="20" height="70" as="geometry" />
        </mxCell>
        <mxCell id="3XOKU21-X05-QKLe23SN-23" value="" style="rounded=1;whiteSpace=wrap;html=1;strokeWidth=2;fillColor=none;strokeColor=#0099CC;" parent="3XOKU21-X05-QKLe23SN-1" vertex="1">
          <mxGeometry x="190" y="620" width="20" height="70" as="geometry" />
        </mxCell>
        <mxCell id="3XOKU21-X05-QKLe23SN-24" value="" style="rounded=1;whiteSpace=wrap;html=1;strokeWidth=2;fillColor=#F4B084;strokeColor=none;fontFamily=Segoe UI Variable Display;fontSize=16;" parent="3XOKU21-X05-QKLe23SN-1" vertex="1">
          <mxGeometry x="220" y="640" width="20" height="50" as="geometry" />
        </mxCell>
        <mxCell id="3XOKU21-X05-QKLe23SN-25" value="" style="rounded=1;whiteSpace=wrap;html=1;strokeWidth=2;fillColor=#00E673;strokeColor=none;" parent="3XOKU21-X05-QKLe23SN-1" vertex="1">
          <mxGeometry x="190" y="500" width="20" height="60" as="geometry" />
        </mxCell>
        <mxCell id="3XOKU21-X05-QKLe23SN-26" value="" style="edgeStyle=segmentEdgeStyle;endArrow=blockThin;html=1;rounded=1;strokeWidth=3;strokeColor=#FF8433;startArrow=blockThin;startFill=1;exitX=0.5;exitY=1;exitDx=0;exitDy=0;endFill=1;" parent="3XOKU21-X05-QKLe23SN-1" source="3XOKU21-X05-QKLe23SN-24" edge="1">
          <mxGeometry width="50" height="50" relative="1" as="geometry">
            <mxPoint x="230" y="690" as="sourcePoint" />
            <mxPoint x="170" y="690" as="targetPoint" />
            <Array as="points">
              <mxPoint x="230" y="720" />
              <mxPoint x="170" y="720" />
            </Array>
          </mxGeometry>
        </mxCell>
        <mxCell id="3XOKU21-X05-QKLe23SN-27" value="" style="rounded=1;whiteSpace=wrap;html=1;strokeWidth=2;fillColor=none;strokeColor=#0099CC;" parent="3XOKU21-X05-QKLe23SN-1" vertex="1">
          <mxGeometry x="220" y="760" width="20" height="60" as="geometry" />
        </mxCell>
        <mxCell id="3XOKU21-X05-QKLe23SN-28" value="" style="rounded=1;whiteSpace=wrap;html=1;strokeWidth=2;fillColor=#FFCC3B;strokeColor=none;" parent="3XOKU21-X05-QKLe23SN-1" vertex="1">
          <mxGeometry x="130" y="780" width="20" height="40" as="geometry" />
        </mxCell>
        <mxCell id="3XOKU21-X05-QKLe23SN-29" value="" style="rounded=1;whiteSpace=wrap;html=1;strokeWidth=2;fillColor=#FFCC3B;strokeColor=none;" parent="3XOKU21-X05-QKLe23SN-1" vertex="1">
          <mxGeometry x="100" y="790" width="20" height="30" as="geometry" />
        </mxCell>
        <mxCell id="3XOKU21-X05-QKLe23SN-30" value="" style="rounded=1;whiteSpace=wrap;html=1;strokeWidth=2;fillColor=#FFCC3B;strokeColor=none;" parent="3XOKU21-X05-QKLe23SN-1" vertex="1">
          <mxGeometry x="70" y="800" width="20" height="20" as="geometry" />
        </mxCell>
        <mxCell id="3XOKU21-X05-QKLe23SN-32" value="" style="rounded=1;whiteSpace=wrap;html=1;strokeWidth=2;fillColor=none;strokeColor=#0099CC;gradientColor=none;" parent="3XOKU21-X05-QKLe23SN-1" vertex="1">
          <mxGeometry x="250" y="740" width="20" height="80" as="geometry" />
        </mxCell>
        <mxCell id="3XOKU21-X05-QKLe23SN-33" value="" style="rounded=1;whiteSpace=wrap;html=1;strokeWidth=2;fillColor=none;strokeColor=#0099CC;gradientColor=none;" parent="3XOKU21-X05-QKLe23SN-1" vertex="1">
          <mxGeometry x="280" y="750" width="20" height="70" as="geometry" />
        </mxCell>
        <mxCell id="3XOKU21-X05-QKLe23SN-34" value="" style="rounded=1;whiteSpace=wrap;html=1;strokeWidth=2;fillColor=none;strokeColor=#0099CC;" parent="3XOKU21-X05-QKLe23SN-1" vertex="1">
          <mxGeometry x="190" y="750" width="20" height="70" as="geometry" />
        </mxCell>
        <mxCell id="3XOKU21-X05-QKLe23SN-35" value="" style="rounded=1;whiteSpace=wrap;html=1;strokeWidth=2;fillColor=#FF8433;strokeColor=none;fontFamily=Segoe UI Variable Display;fontSize=16;" parent="3XOKU21-X05-QKLe23SN-1" vertex="1">
          <mxGeometry x="160" y="770" width="20" height="50" as="geometry" />
        </mxCell>
        <mxCell id="3XOKU21-X05-QKLe23SN-36" value="" style="rounded=1;whiteSpace=wrap;html=1;strokeWidth=2;fillColor=none;strokeColor=#0099CC;fontFamily=Segoe UI Variable Display;fontSize=16;" parent="3XOKU21-X05-QKLe23SN-1" vertex="1">
          <mxGeometry x="220" y="510" width="20" height="50" as="geometry" />
        </mxCell>
        <mxCell id="3XOKU21-X05-QKLe23SN-37" value="" style="rounded=1;whiteSpace=wrap;html=1;strokeWidth=2;fillColor=#00E673;strokeColor=none;fontFamily=Segoe UI Variable Display;fontSize=16;" parent="3XOKU21-X05-QKLe23SN-1" vertex="1">
          <mxGeometry x="220" y="640" width="20" height="50" as="geometry" />
        </mxCell>
        <mxCell id="LFefL2PxBuzrvjJVMMh1-0" value="" style="shape=curlyBracket;whiteSpace=wrap;html=1;rounded=1;strokeColor=#FFCC3B;fillColor=none;rotation=-90;" parent="3XOKU21-X05-QKLe23SN-1" vertex="1">
          <mxGeometry x="115.78" y="779.06" width="20" height="110" as="geometry" />
        </mxCell>
        <mxCell id="LFefL2PxBuzrvjJVMMh1-1" value="" style="shape=curlyBracket;whiteSpace=wrap;html=1;rounded=1;strokeColor=#0099CC;fillColor=none;rotation=-90;" parent="3XOKU21-X05-QKLe23SN-1" vertex="1">
          <mxGeometry x="235.51" y="772.52" width="20" height="123.08" as="geometry" />
        </mxCell>
        <mxCell id="LFefL2PxBuzrvjJVMMh1-2" value="&lt;font&gt;already sorted&lt;/font&gt;" style="text;html=1;strokeColor=none;fillColor=none;align=center;verticalAlign=middle;whiteSpace=wrap;rounded=0;fontFamily=Segoe UI Variable Display;fontSize=16;fontColor=#FFCC3B;" parent="3XOKU21-X05-QKLe23SN-1" vertex="1">
          <mxGeometry x="70" y="844.6800000000001" width="120" height="20" as="geometry" />
        </mxCell>
        <mxCell id="LFefL2PxBuzrvjJVMMh1-3" value="&lt;font&gt;not yet sorted&lt;/font&gt;" style="text;html=1;strokeColor=none;fillColor=none;align=center;verticalAlign=middle;whiteSpace=wrap;rounded=0;fontFamily=Segoe UI Variable Display;fontSize=16;fontColor=#0099CC;" parent="3XOKU21-X05-QKLe23SN-1" vertex="1">
          <mxGeometry x="170.15" y="844.6800000000001" width="155" height="20" as="geometry" />
        </mxCell>
        <mxCell id="qaMMW1XbkCzjoMXXLjQf-0" value="&lt;font&gt;A[i]&lt;/font&gt;" style="text;html=1;strokeColor=none;fillColor=none;align=center;verticalAlign=middle;whiteSpace=wrap;rounded=0;fontFamily=consolas;fontSize=16;fontColor=#FF8433;" parent="3XOKU21-X05-QKLe23SN-1" vertex="1">
          <mxGeometry x="155" y="470" width="30" height="20" as="geometry" />
        </mxCell>
        <mxCell id="qaMMW1XbkCzjoMXXLjQf-1" value="&lt;font&gt;A[i]&lt;/font&gt;" style="text;html=1;strokeColor=none;fillColor=none;align=center;verticalAlign=middle;whiteSpace=wrap;rounded=0;fontFamily=consolas;fontSize=16;fontColor=#FF8433;" parent="3XOKU21-X05-QKLe23SN-1" vertex="1">
          <mxGeometry x="155" y="610" width="30" height="20" as="geometry" />
        </mxCell>
        <mxCell id="qaMMW1XbkCzjoMXXLjQf-2" value="&lt;font&gt;A[i]&lt;/font&gt;" style="text;html=1;strokeColor=none;fillColor=none;align=center;verticalAlign=middle;whiteSpace=wrap;rounded=0;fontFamily=consolas;fontSize=16;fontColor=#FF8433;" parent="3XOKU21-X05-QKLe23SN-1" vertex="1">
          <mxGeometry x="155" y="750" width="30" height="20" as="geometry" />
        </mxCell>
      </root>
    </mxGraphModel>
  </diagram>
</mxfile>
